<svg width="44" height="45" viewBox="0 0 44 45" fill="none" xmlns="http://www.w3.org/2000/svg">
<g clip-path="url(#clip0_31_628)">
<path d="M4.98667 17.6872C4.09741 17.0787 3.35317 16.2818 2.80689 15.353C2.26061 14.4242 1.92571 13.3865 1.82601 12.3136C1.72632 11.2407 1.86428 10.159 2.23008 9.14553C2.59587 8.13201 3.18053 7.21156 3.94244 6.44964C4.70435 5.68773 5.62481 5.10308 6.63832 4.73728C7.65184 4.37148 8.73352 4.23352 9.8064 4.33322C10.8793 4.43291 11.917 4.76781 12.8458 5.31409C13.7746 5.86038 14.5715 6.60462 15.18 7.49387L4.98667 17.6872Z" fill="url(#paint0_linear_31_628)"/>
<path d="M39.0133 17.6872C39.9026 17.0787 40.6468 16.2818 41.1931 15.353C41.7394 14.4242 42.0743 13.3865 42.174 12.3136C42.2737 11.2407 42.1357 10.159 41.7699 9.14553C41.4041 8.13201 40.8195 7.21156 40.0576 6.44964C39.2957 5.68773 38.3752 5.10308 37.3617 4.73728C36.3482 4.37148 35.2665 4.23352 34.1936 4.33322C33.1207 4.43291 32.083 4.76781 31.1542 5.31409C30.2255 5.86038 29.4285 6.60462 28.82 7.49387L39.0133 17.6872Z" fill="url(#paint1_linear_31_628)"/>
<path d="M22 9.8405C21.5138 9.8405 21.0475 9.64734 20.7037 9.30352C20.3598 8.95971 20.1667 8.49339 20.1667 8.00716V2.50716C20.1667 2.02093 20.3598 1.55462 20.7037 1.2108C21.0475 0.866982 21.5138 0.673828 22 0.673828C22.4863 0.673828 22.9526 0.866982 23.2964 1.2108C23.6402 1.55462 23.8334 2.02093 23.8334 2.50716V8.00716C23.8334 8.49339 23.6402 8.95971 23.2964 9.30352C22.9526 9.64734 22.4863 9.8405 22 9.8405Z" fill="url(#paint2_linear_31_628)"/>
<path d="M22 42.8405C32.1252 42.8405 40.3333 34.6324 40.3333 24.5072C40.3333 14.3819 32.1252 6.17383 22 6.17383C11.8748 6.17383 3.66666 14.3819 3.66666 24.5072C3.66666 34.6324 11.8748 42.8405 22 42.8405Z" fill="url(#paint3_linear_31_628)"/>
<path d="M16.5 31.8405C16.1375 31.8404 15.7831 31.7329 15.4817 31.5314C15.1802 31.3299 14.9453 31.0436 14.8066 30.7087C14.6679 30.3737 14.6316 30.0052 14.7023 29.6496C14.773 29.294 14.9475 28.9674 15.2038 28.711L20.1667 23.7482V13.5072C20.1667 13.0209 20.3598 12.5546 20.7036 12.2108C21.0475 11.867 21.5138 11.6738 22 11.6738C22.4862 11.6738 22.9525 11.867 23.2964 12.2108C23.6402 12.5546 23.8333 13.0209 23.8333 13.5072V24.5072C23.8332 24.9934 23.64 25.4596 23.2962 25.8033L17.7962 31.3033C17.4524 31.6472 16.9862 31.8404 16.5 31.8405Z" fill="#CFFEFF"/>
</g>
<defs>
<linearGradient id="paint0_linear_31_628" x1="8.50667" y1="4.30204" x2="8.50667" y2="16.3342" gradientUnits="userSpaceOnUse">
<stop stop-color="#FFAA39"/>
<stop offset="1" stop-color="#FF811A"/>
</linearGradient>
<linearGradient id="paint1_linear_31_628" x1="35.4933" y1="4.30204" x2="35.4933" y2="16.3342" gradientUnits="userSpaceOnUse">
<stop stop-color="#FFAA39"/>
<stop offset="1" stop-color="#FF811A"/>
</linearGradient>
<linearGradient id="paint2_linear_31_628" x1="22" y1="0.380495" x2="22" y2="9.33633" gradientUnits="userSpaceOnUse">
<stop stop-color="#5D5C66"/>
<stop offset="1" stop-color="#48474F"/>
</linearGradient>
<linearGradient id="paint3_linear_31_628" x1="22" y1="5.93916" x2="22" y2="43.1558" gradientUnits="userSpaceOnUse">
<stop stop-color="#A6F9FF"/>
<stop offset="1" stop-color="#3ED0F7"/>
</linearGradient>
<clipPath id="clip0_31_628">
<rect width="44" height="44" fill="white" transform="translate(0 0.673828)"/>
</clipPath>
</defs>
</svg>
