<svg width="51" height="62" viewBox="0 0 51 62" fill="none" xmlns="http://www.w3.org/2000/svg">
<path d="M20.8263 3.05497L1.26625 45.9331C0.645699 47.2938 1.25062 48.9142 2.61136 49.5347L21.3653 58.09C22.726 58.7105 24.3464 58.1056 24.967 56.7449L44.5277 13.8674C45.1482 12.5067 44.5433 10.8863 43.1826 10.2658L24.4286 1.70987C23.0679 1.08932 21.4475 1.69492 20.8263 3.05497Z" fill="#016938"/>
<path d="M11.0449 4.6807L8.53146 51.7423C8.45193 53.2355 9.60808 54.5222 11.1014 54.6024L31.685 55.7014C33.1783 55.781 34.4649 54.6248 34.5451 53.1315L37.0586 6.06998C37.1381 4.57671 35.982 3.29006 34.4887 3.20985L13.9051 2.1108C12.4118 2.03128 11.1251 3.18811 11.0449 4.6807Z" fill="#027B38"/>
<path d="M3.09733 10.8435L19.5118 55.0218C20.0324 56.4233 21.6052 57.1445 23.0074 56.6231L42.3303 49.4443C43.7318 48.9236 44.4529 47.3508 43.9316 45.9486L27.5171 1.771C26.9965 0.369481 25.4237 -0.351668 24.0215 0.169652L4.69936 7.34851C3.29784 7.86915 2.57669 9.44195 3.09733 10.8435Z" fill="#89BC49"/>
<path d="M3.09733 10.8435L19.5118 55.0218C20.0324 56.4233 21.6052 57.1445 23.0074 56.6231L42.3303 49.4443C43.7318 48.9236 44.4529 47.3508 43.9316 45.9486L27.5171 1.771C26.9965 0.369481 25.4237 -0.351668 24.0215 0.169652L4.69936 7.34851C3.29784 7.86915 2.57669 9.44195 3.09733 10.8435Z" fill="#92C142"/>
<mask id="mask0_31_590" style="mask-type:luminance" maskUnits="userSpaceOnUse" x="2" y="0" width="43" height="57">
<path d="M3.09733 10.8435L19.5118 55.0218C20.0324 56.4233 21.6052 57.1445 23.0074 56.6231L42.3303 49.4443C43.7318 48.9236 44.4529 47.3508 43.9316 45.9486L27.5171 1.771C26.9965 0.369481 25.4237 -0.351668 24.0215 0.169652L4.69936 7.34851C3.29784 7.86915 2.57669 9.44195 3.09733 10.8435Z" fill="white"/>
</mask>
<g mask="url(#mask0_31_590)">
<path d="M8.90661 5.1892C8.98409 5.35777 9.06157 5.52633 9.1275 5.70237V5.70305L19.594 1.81592C19.594 1.81524 19.5933 1.81456 19.5933 1.81388C19.5274 1.63716 19.4771 1.45908 19.4254 1.281L27.0645 -1.55737L29.8355 5.90152C29.6412 5.99599 29.444 6.08707 29.2388 6.16592L42.3649 41.4947C42.5722 41.4206 42.7802 41.3601 42.9895 41.3051L46.1494 49.8107L38.6674 52.5906C38.3636 52.1284 38.1012 51.6295 37.9 51.0892L27.4335 54.9756C27.4335 54.9763 27.4342 54.977 27.4342 54.9777C27.6354 55.518 27.7625 56.0672 27.8339 56.6157L20.5952 59.3052L17.4278 50.7806C17.5726 50.716 17.7147 50.6487 17.8649 50.593L4.74284 15.2724C4.59263 15.3281 4.44038 15.3696 4.28949 15.4151L1.51093 7.93718L8.90661 5.1892ZM6.7921 14.1101L20.1772 50.1363C22.5309 50.0472 24.8018 51.0871 26.2713 52.9277L37.4433 48.7789C37.3536 46.3953 38.4193 44.0938 40.3041 42.6264L26.9401 6.65733C24.555 6.77627 22.2455 5.72956 20.757 3.86585L9.58561 8.01466C9.67465 10.3691 8.63405 12.6406 6.7921 14.1101Z" fill="#3C9C36"/>
</g>
<path d="M31.0358 25.6002C29.8277 22.3488 25.4807 20.9643 21.3263 22.5079C17.172 24.0515 14.7836 27.9386 15.9917 31.19C17.1998 34.4414 21.5469 35.8258 25.7012 34.2823C29.8555 32.7387 32.2439 28.8516 31.0358 25.6002Z" fill="#3C9C36"/>
<path d="M14.1069 13.0383L15.8048 17.6085C16.4043 19.2214 18.1973 20.0431 19.8102 19.4436L20.1174 19.3294C21.7303 18.73 22.552 16.937 21.9526 15.3241L20.2547 10.7538C19.6552 9.14093 17.8622 8.31919 16.2493 8.91868L15.9421 9.03286C14.3299 9.63167 13.5081 11.4254 14.1069 13.0383Z" fill="#3C9C36"/>
<path d="M24.7026 41.5571L26.4004 46.1273C26.9999 47.7402 28.7929 48.5619 30.4058 47.9624L30.713 47.8482C32.3259 47.2488 33.1477 45.4557 32.5482 43.8429L30.8503 39.2726C30.2509 37.6597 28.4578 36.838 26.8449 37.4375L26.5377 37.5517C24.9255 38.1505 24.1038 39.9442 24.7026 41.5571Z" fill="#3C9C36"/>
<path d="M45.9326 61.2138H2.71875C1.21732 61.2138 0 59.9965 0 58.4951V26.7285C0 25.2271 1.21732 24.0098 2.71875 24.0098H45.9326C47.434 24.0098 48.6513 25.2271 48.6513 26.7285V58.4951C48.6513 59.9965 47.434 61.2138 45.9326 61.2138Z" fill="#F49C0B"/>
<path opacity="0.67" d="M45.7892 24.0098H43.6427C45.223 24.0098 46.5049 25.291 46.5049 26.8719V47.5861L31.3499 46.2457L45.5649 60.4607C45.0565 60.925 44.3856 61.2152 43.6434 61.2152H45.7899C47.3702 61.2152 48.652 59.934 48.652 58.353V26.8719C48.6514 25.291 47.3702 24.0098 45.7892 24.0098Z" fill="#E48316"/>
<path d="M40.1926 58.4142H38.7564C38.5587 58.4142 38.3989 58.2544 38.3989 58.0567C38.3989 57.8589 38.5587 57.6991 38.7564 57.6991H40.1926C40.3904 57.6991 40.5501 57.8589 40.5501 58.0567C40.5508 58.2544 40.3904 58.4142 40.1926 58.4142ZM35.1643 58.4142H33.7281C33.5303 58.4142 33.3706 58.2544 33.3706 58.0567C33.3706 57.8589 33.5303 57.6991 33.7281 57.6991H35.1643C35.3621 57.6991 35.5218 57.8589 35.5218 58.0567C35.5218 58.2544 35.3621 58.4142 35.1643 58.4142ZM30.1366 58.4142H28.7005C28.5027 58.4142 28.343 58.2544 28.343 58.0567C28.343 57.8589 28.5027 57.6991 28.7005 57.6991H30.1366C30.3344 57.6991 30.4942 57.8589 30.4942 58.0567C30.4942 58.2544 30.3344 58.4142 30.1366 58.4142ZM25.109 58.4142H23.6728C23.475 58.4142 23.3153 58.2544 23.3153 58.0567C23.3153 57.8589 23.475 57.6991 23.6728 57.6991H25.109C25.3068 57.6991 25.4665 57.8589 25.4665 58.0567C25.4665 58.2544 25.3068 58.4142 25.109 58.4142ZM20.0813 58.4142H18.6438C18.446 58.4142 18.2863 58.2544 18.2863 58.0567C18.2863 57.8589 18.446 57.6991 18.6438 57.6991H20.0813C20.2791 57.6991 20.4389 57.8589 20.4389 58.0567C20.4389 58.2544 20.2785 58.4142 20.0813 58.4142ZM15.0523 58.4142H13.6162C13.4184 58.4142 13.2586 58.2544 13.2586 58.0567C13.2586 57.8589 13.4184 57.6991 13.6162 57.6991H15.0523C15.2501 57.6991 15.4099 57.8589 15.4099 58.0567C15.4105 58.2544 15.2501 58.4142 15.0523 58.4142ZM10.0247 58.4142H8.58851C8.39072 58.4142 8.231 58.2544 8.231 58.0567C8.231 57.8589 8.39072 57.6991 8.58851 57.6991H10.0247C10.2225 57.6991 10.3822 57.8589 10.3822 58.0567C10.3822 58.2544 10.2225 58.4142 10.0247 58.4142ZM4.99704 58.4142H4.97801C4.386 58.4142 3.90479 57.933 3.90479 57.3409V57.0283C3.90479 56.8305 4.06451 56.6708 4.2623 56.6708C4.46009 56.6708 4.61982 56.8305 4.61982 57.0283V57.3409C4.61982 57.5381 4.78022 57.6985 4.97733 57.6985C5.17512 57.6985 5.34436 57.8582 5.34436 58.056C5.34504 58.2544 5.19483 58.4142 4.99704 58.4142ZM43.7827 58.406C43.6101 58.406 43.4578 58.2803 43.43 58.1036C43.3994 57.9085 43.5326 57.7256 43.7284 57.6951C43.901 57.6679 44.0308 57.5163 44.0308 57.3416V56.9182C44.0308 56.7204 44.1905 56.5607 44.3883 56.5607C44.5861 56.5607 44.7458 56.7204 44.7458 56.9182V57.3416C44.7458 57.8731 44.3645 58.3197 43.8385 58.4019C43.8208 58.4047 43.8018 58.406 43.7827 58.406ZM4.26298 53.795C4.06519 53.795 3.90546 53.6353 3.90546 53.4375V52C3.90546 51.8022 4.06519 51.6424 4.26298 51.6424C4.46077 51.6424 4.6205 51.8022 4.6205 52V53.4375C4.6205 53.6353 4.46009 53.795 4.26298 53.795ZM44.3883 53.6842C44.1905 53.6842 44.0308 53.5245 44.0308 53.3267V51.8892C44.0308 51.6914 44.1905 51.5317 44.3883 51.5317C44.5861 51.5317 44.7458 51.6914 44.7458 51.8892V53.3267C44.7465 53.5238 44.5861 53.6842 44.3883 53.6842ZM4.26298 48.7667C4.06519 48.7667 3.90546 48.607 3.90546 48.4092V46.973C3.90546 46.7752 4.06519 46.6155 4.26298 46.6155C4.46077 46.6155 4.6205 46.7752 4.6205 46.973V48.4092C4.6205 48.607 4.46009 48.7667 4.26298 48.7667ZM4.26298 43.739C4.06519 43.739 3.90546 43.5793 3.90546 43.3815V41.9447C3.90546 41.7469 4.06519 41.5871 4.26298 41.5871C4.46077 41.5871 4.6205 41.7469 4.6205 41.9447V43.3808C4.6205 43.5786 4.46009 43.739 4.26298 43.739ZM4.26298 38.7114C4.06519 38.7114 3.90546 38.5517 3.90546 38.3539V36.9177C3.90546 36.7199 4.06519 36.5602 4.26298 36.5602C4.46077 36.5602 4.6205 36.7199 4.6205 36.9177V38.3539C4.6205 38.551 4.46009 38.7114 4.26298 38.7114ZM4.26298 33.6824C4.06519 33.6824 3.90546 33.5227 3.90546 33.3249V31.8887C3.90546 31.6909 4.06519 31.5312 4.26298 31.5312C4.46077 31.5312 4.6205 31.6909 4.6205 31.8887V33.3249C4.6205 33.5227 4.46009 33.6824 4.26298 33.6824ZM44.3883 33.5716C44.1905 33.5716 44.0308 33.4119 44.0308 33.2141V31.7779C44.0308 31.5801 44.1905 31.4204 44.3883 31.4204C44.5861 31.4204 44.7458 31.5801 44.7458 31.7779V33.2141C44.7465 33.4112 44.5861 33.5716 44.3883 33.5716ZM4.26298 28.6547C4.06519 28.6547 3.90546 28.495 3.90546 28.2972V27.8826C3.90546 27.3518 4.30172 26.895 4.82712 26.8196C5.01879 26.7965 5.20367 26.927 5.23153 27.1234C5.2594 27.3191 5.12347 27.4999 4.92772 27.5278C4.75304 27.553 4.62118 27.7052 4.62118 27.8819V28.2965C4.6205 28.495 4.46009 28.6547 4.26298 28.6547ZM44.3883 28.5439C44.1905 28.5439 44.0308 28.3842 44.0308 28.1864V27.8833C44.0308 27.6862 43.8704 27.5258 43.6733 27.5258C43.4755 27.5258 43.3103 27.366 43.3103 27.1683C43.3103 26.9705 43.466 26.8107 43.6638 26.8107H43.6726C44.2646 26.8107 44.7458 27.292 44.7458 27.884V28.1871C44.7465 28.3835 44.5861 28.5439 44.3883 28.5439ZM40.0723 27.5251H38.6361C38.4383 27.5251 38.2786 27.3654 38.2786 27.1676C38.2786 26.9698 38.4383 26.8101 38.6361 26.8101H40.0723C40.2701 26.8101 40.4298 26.9698 40.4298 27.1676C40.4298 27.3654 40.2694 27.5251 40.0723 27.5251ZM35.044 27.5251H33.6078C33.41 27.5251 33.2503 27.3654 33.2503 27.1676C33.2503 26.9698 33.41 26.8101 33.6078 26.8101H35.044C35.2418 26.8101 35.4015 26.9698 35.4015 27.1676C35.4015 27.3654 35.2418 27.5251 35.044 27.5251ZM30.0163 27.5251H28.5802C28.3824 27.5251 28.2226 27.3654 28.2226 27.1676C28.2226 26.9698 28.3824 26.8101 28.5802 26.8101H30.0163C30.2141 26.8101 30.3739 26.9698 30.3739 27.1676C30.3739 27.3654 30.2141 27.5251 30.0163 27.5251ZM24.9887 27.5251H23.5512C23.3534 27.5251 23.1936 27.3654 23.1936 27.1676C23.1936 26.9698 23.3534 26.8101 23.5512 26.8101H24.9887C25.1865 26.8101 25.3462 26.9698 25.3462 27.1676C25.3462 27.3654 25.1865 27.5251 24.9887 27.5251ZM19.9604 27.5251H18.5242C18.3264 27.5251 18.1667 27.3654 18.1667 27.1676C18.1667 26.9698 18.3264 26.8101 18.5242 26.8101H19.9604C20.1582 26.8101 20.3179 26.9698 20.3179 27.1676C20.3179 27.3654 20.1582 27.5251 19.9604 27.5251ZM14.932 27.5251H13.4959C13.2981 27.5251 13.1383 27.3654 13.1383 27.1676C13.1383 26.9698 13.2981 26.8101 13.4959 26.8101H14.932C15.1298 26.8101 15.2896 26.9698 15.2896 27.1676C15.2896 27.3654 15.1298 27.5251 14.932 27.5251ZM9.90439 27.5251H8.46685C8.26906 27.5251 8.10933 27.3654 8.10933 27.1676C8.10933 26.9698 8.26906 26.8101 8.46685 26.8101H9.90439C10.1022 26.8101 10.2619 26.9698 10.2619 27.1676C10.2619 27.3654 10.1022 27.5251 9.90439 27.5251Z" fill="#FBCA76"/>
<path opacity="0.5" d="M2.14645 58.3517V26.8719C2.14645 25.2917 3.42766 24.0098 5.00862 24.0098H2.86216C1.28189 24.0098 0 25.291 0 26.8719V58.3523C0 59.9326 1.28121 61.2145 2.86216 61.2145H5.00862C3.42766 61.2138 2.14645 59.9326 2.14645 58.3517Z" fill="#F9C187"/>
<path d="M48.7227 48.3357H35.4865C32.4836 48.3357 30.049 45.9011 30.049 42.8982V42.3259C30.049 39.3231 32.4836 36.8884 35.4865 36.8884H48.7227C49.4737 36.8884 50.0821 37.4967 50.0821 38.2478V46.9764C50.0821 47.7267 49.4737 48.3357 48.7227 48.3357Z" fill="#D17311"/>
<mask id="mask1_31_590" style="mask-type:luminance" maskUnits="userSpaceOnUse" x="45" y="36" width="6" height="13">
<path d="M48.6514 36.8884H45.2122V48.3357H48.6514C49.4419 48.3357 50.0821 47.6948 50.0821 46.905V38.3192C50.0821 37.5287 49.4419 36.8884 48.6514 36.8884Z" fill="white"/>
</mask>
<g mask="url(#mask1_31_590)">
<path d="M50.0821 34.2844H47.9357V51.7347H50.0821V34.2844Z" fill="#CA6213"/>
</g>
<mask id="mask2_31_590" style="mask-type:luminance" maskUnits="userSpaceOnUse" x="30" y="36" width="21" height="13">
<path d="M48.7227 48.3357H35.4865C32.4836 48.3357 30.049 45.9011 30.049 42.8982V42.3259C30.049 39.3231 32.4836 36.8884 35.4865 36.8884H48.7227C49.4737 36.8884 50.0821 37.4967 50.0821 38.2478V46.9764C50.0821 47.7267 49.4737 48.3357 48.7227 48.3357Z" fill="white"/>
</mask>
<g mask="url(#mask2_31_590)">
<path d="M33.7369 44.522L37.9367 48.6538H45.3202L37.5017 40.834L33.7369 44.522Z" fill="#C56415"/>
</g>
<path d="M35.5538 45.2547C37.0132 45.2547 38.1964 44.0716 38.1964 42.6121C38.1964 41.1526 37.0132 39.9695 35.5538 39.9695C34.0943 39.9695 32.9111 41.1526 32.9111 42.6121C32.9111 44.0716 34.0943 45.2547 35.5538 45.2547Z" fill="#D8B997"/>
<path d="M34.3419 42.6122C34.3419 41.5852 34.662 40.6642 35.1691 40.0083C33.8933 40.1959 32.9111 41.2841 32.9111 42.6122C32.9111 43.9396 33.894 45.0285 35.1691 45.2161C34.662 44.5602 34.3419 43.6392 34.3419 42.6122Z" fill="#F1D2AE"/>
<path d="M36.765 42.6122C36.765 43.6392 36.4449 44.5602 35.9378 45.2161C37.2136 45.0285 38.1957 43.9403 38.1957 42.6122C38.1957 41.2848 37.2129 40.1959 35.9378 40.0083C36.4449 40.6635 36.765 41.5845 36.765 42.6122Z" fill="#C8A57E"/>
</svg>
