<svg width="28" height="29" viewBox="0 0 28 29" fill="none" xmlns="http://www.w3.org/2000/svg">
<path d="M17.4113 25.6883L28 23.609C27.8776 24.7533 27.5566 25.8572 27.037 26.9207L16.4727 29C16.5816 27.8407 16.8944 26.7368 17.4113 25.6883ZM27.037 20.6792L16.4727 22.7584V16.5207L13.1758 17.1747V20.6376C13.1758 20.9476 13.0833 21.2299 12.8983 21.4844L11.1804 23.8397C10.7234 24.4496 10.1113 24.8251 9.34422 24.9662L0 26.8149C0.122413 25.6681 0.443408 24.5642 0.962985 23.5032L9.87467 21.7415V17.8098L1.55873 19.4467C1.68114 18.3 2.00078 17.2037 2.51763 16.1577L9.87467 14.6909V2.57072C10.805 1.52227 11.9054 0.665363 13.1758 0V14.0558L16.4727 13.398V4.09803C17.4058 3.0521 18.498 2.19519 19.7493 1.52731V12.7591L28 11.1259C27.8776 12.2727 27.5566 13.3766 27.037 14.4376L19.7493 15.8818V18.9817L28 17.3675C27.8776 18.5268 27.5566 19.6307 27.037 20.6792Z" fill="#9EA2BE"/>
</svg>
