<svg width="74" height="74" viewBox="0 0 74 74" fill="none" xmlns="http://www.w3.org/2000/svg">
<path d="M67.8337 33.146H6.16699C4.90283 33.146 3.85449 32.0977 3.85449 30.8335C3.85449 29.5693 4.90283 28.521 6.16699 28.521H67.8337C69.0978 28.521 70.1462 29.5693 70.1462 30.8335C70.1462 32.0977 69.0978 33.146 67.8337 33.146Z" fill="#01636B"/>
<path d="M35.6134 65.5211H19.8576C7.58592 65.5211 3.82422 61.8211 3.82422 49.6728V24.3278C3.82422 14.6153 5.89002 9.21943 16.8975 8.57193C17.8225 8.5411 18.8093 8.51025 19.8576 8.51025H54.1134C66.385 8.51025 70.1468 12.2103 70.1468 24.3586V37.9561C70.1468 39.2203 69.0984 40.2686 67.8343 40.2686C66.5701 40.2686 65.5218 39.2203 65.5218 37.9561V24.3586C65.5218 14.8311 63.8259 13.1353 54.1134 13.1353H19.8576C18.8709 13.1353 17.9767 13.1661 17.1134 13.1969C10.4225 13.5978 8.44922 15.1086 8.44922 24.3586V49.7036C8.44922 59.2311 10.1451 60.9269 19.8576 60.9269H35.6134C36.8775 60.9269 37.9259 61.9753 37.9259 63.2394C37.9259 64.5036 36.9084 65.5211 35.6134 65.5211Z" fill="#01636B"/>
<path d="M30.8333 51.646H18.5C17.2358 51.646 16.1875 50.5977 16.1875 49.3335C16.1875 48.0693 17.2358 47.021 18.5 47.021H30.8333C32.0975 47.021 33.1458 48.0693 33.1458 49.3335C33.1458 50.5977 32.0975 51.646 30.8333 51.646Z" fill="#01636B"/>
<path d="M55.5003 70.1457C50.382 70.1457 45.572 67.4323 42.982 63.0232C41.5945 60.8032 40.8545 58.1823 40.8545 55.4998C40.8545 47.4215 47.422 40.854 55.5003 40.854C63.5787 40.854 70.1462 47.4215 70.1462 55.4998C70.1462 58.1823 69.4062 60.8032 68.0187 63.054C65.4286 67.4323 60.6187 70.1457 55.5003 70.1457ZM55.5003 45.479C49.9812 45.479 45.4795 49.9807 45.4795 55.4998C45.4795 57.319 45.9727 59.1073 46.9286 60.649C48.7169 63.6707 52.0162 65.5207 55.5003 65.5207C58.9845 65.5207 62.2837 63.6706 64.0721 60.6798C65.0279 59.1073 65.5212 57.3498 65.5212 55.4998C65.5212 49.9807 61.0195 45.479 55.5003 45.479Z" fill="#F8881B"/>
<path d="M53.7421 60.8651C53.1563 60.8651 52.5705 60.6493 52.108 60.1868L49.0554 57.1343C48.1612 56.2401 48.1612 54.7601 49.0554 53.866C49.9496 52.9718 51.4295 52.9718 52.3237 53.866L53.8038 55.346L58.7371 50.7826C59.6621 49.9193 61.1421 49.9809 62.0054 50.9059C62.8688 51.8309 62.8072 53.311 61.8822 54.1743L55.3146 60.2484C54.8521 60.6493 54.2971 60.8651 53.7421 60.8651Z" fill="#F8881B"/>
</svg>
