<svg width="18" height="18" viewBox="0 0 18 18" fill="none" xmlns="http://www.w3.org/2000/svg">
<path d="M9.95369 4.29519C9.95369 4.4794 9.95369 5.07984 9.95369 5.93287H12.8866L12.5686 8.54733H9.95369C9.95369 12.5793 9.95369 17.9824 9.95369 17.9824H6.48286C6.48286 17.9824 6.48286 12.6508 6.48286 8.54733H4.67432V5.93287H6.48286C6.48286 4.89604 6.48286 4.15878 6.48286 3.9535C6.48286 2.97545 6.40917 2.51139 6.82475 1.75349C7.24055 0.995631 8.41336 -0.00611174 10.4418 0.0180054C12.4708 0.0430015 13.3261 0.238189 13.3261 0.238189L12.8866 3.02457C12.8866 3.02457 11.591 2.68246 10.955 2.80438C10.3199 2.92634 9.95369 3.31756 9.95369 4.29519Z" fill="#C7D4DE"/>
</svg>
