<svg width="361" height="401" viewBox="0 0 361 401" fill="none" xmlns="http://www.w3.org/2000/svg">
<g clip-path="url(#clip0_202_912)">
<path d="M276.975 304.9C337.04 244.767 337.04 147.272 276.976 87.1389C216.912 27.0059 119.529 27.0059 59.4645 87.1389C-0.599513 147.272 -0.599513 244.767 59.4645 304.9C119.529 365.033 216.911 365.033 276.975 304.9Z" fill="#A3CCCB"/>
<path d="M168.221 327.435C240.716 327.435 299.485 268.598 299.485 196.019C299.485 123.441 240.716 64.604 168.221 64.604C95.7252 64.604 36.9561 123.441 36.9561 196.019C36.9561 268.598 95.7252 327.435 168.221 327.435Z" fill="#00686D"/>
<path d="M168.221 334.018C92.2159 334.018 30.3818 272.113 30.3818 196.019C30.3818 119.926 92.2159 58.0208 168.221 58.0208C244.226 58.0208 306.06 119.926 306.06 196.019C306.06 272.113 244.224 334.018 168.221 334.018ZM168.221 64.604C95.8409 64.604 36.9561 123.556 36.9561 196.019C36.9561 268.482 95.8409 327.435 168.221 327.435C240.601 327.435 299.485 268.482 299.485 196.019C299.485 123.556 240.601 64.604 168.221 64.604Z" fill="white"/>
<path d="M224.806 252.67C256.058 221.383 256.058 170.655 224.806 139.368C193.555 108.08 142.886 108.08 111.634 139.368C80.3823 170.655 80.3823 221.383 111.634 252.67C142.886 283.958 193.555 283.958 224.806 252.67Z" fill="#00686D"/>
<path d="M168.221 282.719C120.47 282.719 81.6201 243.826 81.6201 196.019C81.6201 148.212 120.469 109.321 168.221 109.321C215.973 109.321 254.821 148.214 254.821 196.019C254.821 243.825 215.973 282.719 168.221 282.719ZM168.221 122.484C127.72 122.484 94.7701 155.472 94.7701 196.019C94.7701 236.566 127.72 269.556 168.221 269.556C208.721 269.556 241.671 236.568 241.671 196.019C241.671 155.471 208.721 122.484 168.221 122.484Z" fill="white"/>
<path d="M190.143 217.968C202.251 205.846 202.251 186.193 190.143 174.071C178.035 161.949 158.404 161.949 146.296 174.071C134.188 186.193 134.188 205.846 146.296 217.968C158.404 230.09 178.035 230.09 190.143 217.968Z" fill="#C4903C"/>
<path d="M168.22 233.641C147.5 233.641 130.642 216.764 130.642 196.019C130.642 175.275 147.5 158.398 168.22 158.398C188.941 158.398 205.799 175.275 205.799 196.019C205.799 216.764 188.941 233.641 168.22 233.641ZM168.22 171.561C154.75 171.561 143.79 182.533 143.79 196.019C143.79 209.506 154.75 220.478 168.22 220.478C181.691 220.478 192.65 209.506 192.65 196.019C192.65 182.533 181.691 171.561 168.22 171.561Z" fill="white"/>
<path d="M191.319 173.294L194.585 176.564L318.245 52.7614L314.979 49.4918L191.319 173.294Z" fill="url(#paint0_linear_202_912)"/>
<path d="M193.628 165.407C195.502 163.53 204.334 172.374 202.46 174.249L169.702 200.031C168.492 200.984 166.923 199.414 167.875 198.202L193.628 165.407Z" fill="url(#paint1_linear_202_912)"/>
<path d="M318.171 52.8323L334.807 54.4878L311.969 77.3521C304.486 84.844 294.042 88.5793 283.512 87.5315L318.171 52.8323Z" fill="#A3CCCB"/>
<path d="M314.905 49.5628L313.251 32.9076L290.413 55.7719C282.93 63.2639 279.199 73.72 280.246 84.262L314.905 49.5628Z" fill="#A3CCCB"/>
<g opacity="0.3">
<path d="M86.6003 26.5094C86.135 26.9752 85.382 26.9738 84.9167 26.5094C84.0133 25.6049 83.0584 24.7263 82.0777 23.8979C81.5809 23.4793 81.5122 22.7397 81.9202 22.2366C81.9245 22.2309 81.9302 22.2252 81.9345 22.218C82.3583 21.7149 83.1085 21.6504 83.611 22.0747C84.6447 22.9461 85.6497 23.8706 86.6003 24.8238C87.0356 25.2595 87.0628 25.9475 86.6834 26.4148C86.6576 26.4463 86.629 26.4778 86.5989 26.5079L86.6003 26.5094ZM77.0239 20.1956C75.9386 19.509 74.8148 18.8626 73.6809 18.2749C73.0982 17.9725 72.8706 17.253 73.1726 16.6682C73.479 16.0834 74.1934 15.8569 74.7776 16.1594C75.9701 16.7785 77.1541 17.4594 78.2952 18.1803C78.8507 18.5315 79.0167 19.2682 78.666 19.8244C78.6402 19.8645 78.613 19.9032 78.583 19.939C78.2079 20.402 77.5393 20.5209 77.0239 20.1956ZM67.9384 15.7824C66.7315 15.3567 65.4917 14.9769 64.2533 14.6572C63.6176 14.4924 63.2339 13.8417 63.3986 13.2053C63.5632 12.5689 64.2118 12.1862 64.8489 12.3496C66.1546 12.6879 67.4603 13.0863 68.7302 13.5349C69.3501 13.7542 69.6751 14.4351 69.456 15.0543C69.4088 15.1861 69.3415 15.3051 69.2584 15.4083C68.9506 15.7881 68.4252 15.953 67.9384 15.781V15.7824ZM58.0957 13.5149C56.8229 13.3687 55.5287 13.2769 54.2502 13.2411C53.593 13.2225 53.0748 12.675 53.0934 12.0171C53.112 11.3592 53.6603 10.8417 54.316 10.8589C55.6632 10.8962 57.0248 10.9937 58.3648 11.1456C59.0177 11.2201 59.4873 11.8107 59.4128 12.4643C59.3856 12.6979 59.294 12.9086 59.1551 13.0791C58.9074 13.3844 58.5151 13.5607 58.0957 13.5134V13.5149ZM47.9923 13.4991C46.7224 13.6396 45.4396 13.8374 44.1812 14.0853C43.5355 14.2129 42.9099 13.7929 42.7839 13.1465C42.6565 12.5001 43.076 11.8737 43.7216 11.7476C45.0459 11.4867 46.3946 11.2789 47.7318 11.1298C48.3846 11.0567 48.973 11.5283 49.046 12.1833C49.0833 12.513 48.9816 12.8255 48.7883 13.0648C48.5979 13.2999 48.3187 13.4633 47.9952 13.4991H47.9923ZM38.1381 15.7222C36.9283 16.1407 35.7229 16.618 34.5517 17.1383C33.9519 17.4049 33.2475 17.134 32.9812 16.5335C32.7149 15.9315 32.9841 15.2277 33.5854 14.9611C34.8166 14.4136 36.0865 13.9119 37.3593 13.4704C37.9806 13.2554 38.6578 13.5851 38.8725 14.2072C39.0129 14.6114 38.9227 15.0385 38.6721 15.3481C38.5375 15.5144 38.3557 15.6477 38.1381 15.7222ZM7.78227 47.873C7.1466 47.7067 6.76434 47.056 6.93042 46.4196C7.26973 45.1153 7.6706 43.8081 8.12301 42.5339C8.34348 41.9133 9.02353 41.5893 9.64201 41.8101C10.2605 42.0294 10.5855 42.7116 10.365 43.3308C9.93694 44.5405 9.55611 45.7818 9.23399 47.0202C9.1896 47.1907 9.11086 47.3412 9.00778 47.4702C8.72288 47.8214 8.24899 47.9948 7.78227 47.873ZM29.0255 20.0709C27.9403 20.7488 26.8708 21.4813 25.8472 22.2495C25.3217 22.6437 24.5744 22.5376 24.1807 22.0116C23.7855 21.4856 23.8958 20.7402 24.4183 20.3432C25.4964 19.5348 26.6217 18.7623 27.7656 18.0485C28.324 17.7002 29.057 17.8707 29.4049 18.4297C29.6812 18.8726 29.6311 19.4259 29.319 19.81C29.2374 19.9104 29.1386 19.9978 29.024 20.0709H29.0255ZM11.2598 38.0906C10.6771 37.7867 10.4509 37.0672 10.7544 36.4838C11.3772 35.2884 12.0587 34.1045 12.7817 32.965C13.131 32.4075 13.8698 32.2455 14.4238 32.5967C14.9793 32.9493 15.1425 33.686 14.7918 34.2407C14.1045 35.3243 13.456 36.4494 12.8647 37.5846C12.8275 37.6577 12.7831 37.7237 12.733 37.7853C12.3837 38.2167 11.7695 38.3572 11.2598 38.0906ZM21.1155 26.3503C20.2092 27.2533 19.3302 28.2078 18.5027 29.1868C18.0789 29.6899 17.3273 29.7515 16.8262 29.3273C16.3308 28.9073 16.2635 28.1706 16.6701 27.6675C16.6758 27.6603 16.6801 27.6546 16.6859 27.6474C17.5563 26.6169 18.4826 25.6121 19.4361 24.6604C19.9028 24.196 20.6559 24.1974 21.1198 24.6647C21.5536 25.1004 21.5793 25.787 21.2014 26.2542C21.1742 26.2872 21.1455 26.3187 21.1155 26.3488V26.3503Z" fill="#91B3FA"/>
<path d="M7.64186 55.7248C7.78933 55.5428 7.88525 55.3149 7.90386 55.0626C7.94824 54.4506 8.00837 53.8285 8.07709 53.2136C8.15154 52.56 7.68338 51.9695 7.03054 51.8936C6.37769 51.8176 5.78641 52.2877 5.71196 52.9413C5.63752 53.5877 5.57595 54.2413 5.52871 54.8863C5.48003 55.5428 5.97253 56.1132 6.62824 56.162C7.03197 56.1921 7.40421 56.0158 7.64186 55.7234V55.7248Z" fill="#91B3FA"/>
</g>
<g opacity="0.3">
<path d="M19.3143 90.1174C19.6765 89.6702 19.6708 89.0152 19.2756 88.5723C18.8662 88.115 18.4596 87.6406 18.0673 87.1647C17.6492 86.6573 16.899 86.5842 16.3922 87.0028C15.8825 87.4227 15.8124 88.1724 16.2304 88.6798C16.6442 89.1814 17.0723 89.6802 17.5032 90.1618C17.9413 90.652 18.6944 90.6936 19.184 90.2535C19.2327 90.2105 19.2756 90.1647 19.3143 90.1159V90.1174Z" fill="#91B3FA"/>
<path d="M88.3092 90.222C87.8711 90.7122 87.118 90.7537 86.6284 90.3151C86.1388 89.8765 86.0972 89.124 86.5353 88.6324C87.37 87.6993 88.1775 86.7161 88.9463 85.6984C89.3385 85.1752 90.0887 85.0706 90.6142 85.4676C91.1382 85.8647 91.2412 86.6114 90.8447 87.136C90.5111 87.576 90.1732 88.0103 89.8282 88.436C89.3357 89.0438 88.8246 89.6443 88.3092 90.222ZM92.7774 82.1595C92.2048 81.837 92.0015 81.1103 92.3236 80.537C92.9421 79.4362 93.5205 78.2967 94.0416 77.1501C94.3122 76.5509 95.0209 76.2872 95.6179 76.561C96.2149 76.8333 96.4797 77.5414 96.2063 78.1391C95.6565 79.3459 95.0481 80.5456 94.3967 81.7037C94.3623 81.7639 94.3251 81.8198 94.2821 81.8714C93.9242 82.3143 93.2885 82.4476 92.776 82.1581L92.7774 82.1595ZM83.6619 94.7512C82.6526 95.6084 81.5917 96.434 80.5108 97.2051C79.9754 97.5863 79.2323 97.4616 78.8515 96.9256C78.4707 96.3895 78.5952 95.6471 79.1307 95.2644C80.1586 94.5319 81.1651 93.7479 82.1229 92.9338C82.624 92.5081 83.3756 92.5697 83.8008 93.0714C84.1774 93.5157 84.1716 94.155 83.818 94.5907C83.7722 94.648 83.7206 94.7011 83.6619 94.7498V94.7512ZM97.008 72.8601C96.3781 72.6724 96.0202 72.0073 96.2092 71.3781C96.5699 70.1698 96.8835 68.9314 97.1412 67.6973C97.2758 67.0523 97.9057 66.6395 98.5499 66.7743C99.1928 66.909 99.6051 67.5397 99.4719 68.1832C99.2014 69.4818 98.8706 70.7861 98.4898 72.0589C98.444 72.2123 98.3696 72.3499 98.2751 72.4674C97.9801 72.8315 97.4848 73.0006 97.0095 72.8587L97.008 72.8601ZM74.986 100.596C73.8134 101.21 72.598 101.782 71.3739 102.296C70.7683 102.551 70.071 102.266 69.8162 101.66C69.5614 101.054 69.8463 100.354 70.4533 100.1C71.6158 99.6116 72.7712 99.0684 73.885 98.485C74.4677 98.1797 75.1864 98.4062 75.4914 98.9896C75.7176 99.4239 75.6503 99.9341 75.3611 100.292C75.2623 100.414 75.1363 100.52 74.9874 100.598L74.986 100.596ZM65.2391 104.395C63.9578 104.737 62.6464 105.031 61.3436 105.265C60.6964 105.381 60.0779 104.951 59.962 104.303C59.846 103.654 60.2755 103.036 60.9226 102.92C62.161 102.696 63.4066 102.418 64.625 102.093C65.2606 101.922 65.912 102.301 66.0824 102.935C66.184 103.318 66.0881 103.708 65.8562 103.995C65.703 104.184 65.4925 104.327 65.2391 104.395ZM54.8967 105.977C53.571 106.033 52.2266 106.033 50.9038 105.977C50.2466 105.95 49.737 105.394 49.7642 104.737C49.7914 104.079 50.3468 103.569 51.0026 103.596C52.2596 103.649 53.5352 103.649 54.7965 103.596C55.4536 103.569 56.0077 104.079 56.0349 104.737C56.0478 105.04 55.9476 105.319 55.77 105.537C55.5624 105.794 55.2503 105.963 54.8953 105.977H54.8967ZM44.4555 105.263C43.1498 105.027 41.8384 104.733 40.5585 104.387C39.9242 104.217 39.5477 103.562 39.7195 102.927C39.8899 102.292 40.5442 101.916 41.1784 102.087C42.3939 102.415 43.638 102.695 44.8793 102.918C45.5264 103.036 45.9559 103.655 45.8385 104.303C45.8013 104.508 45.7154 104.69 45.5922 104.84C45.3274 105.167 44.8979 105.343 44.4555 105.263ZM34.4223 102.268C33.2025 101.75 31.9899 101.174 30.8159 100.555C30.2347 100.248 30.0113 99.5271 30.3177 98.9451C30.6241 98.3646 31.3442 98.1396 31.9255 98.4463C33.0407 99.0354 34.1932 99.583 35.35 100.075C35.9556 100.331 36.2377 101.031 35.9814 101.637C35.937 101.743 35.8783 101.838 35.8096 101.924C35.4846 102.325 34.9205 102.481 34.4209 102.269L34.4223 102.268ZM25.2997 97.1449C24.5051 96.5773 23.7191 95.9782 22.9632 95.3633C22.6897 95.1411 22.4191 94.9161 22.1514 94.6896C21.6503 94.2639 21.573 93.51 22.0125 93.0112C22.4378 92.5095 23.1879 92.4465 23.6905 92.8722C23.9453 93.0886 24.203 93.3022 24.4621 93.5129C25.1808 94.0962 25.9282 94.6667 26.6827 95.2056C27.2181 95.5883 27.3412 96.3322 26.959 96.8668C26.9447 96.8869 26.9304 96.907 26.9146 96.9256C26.5209 97.4115 25.8136 97.5118 25.2997 97.1435V97.1449Z" fill="#91B3FA"/>
<path d="M100.099 62.3883C100.248 62.2048 100.344 61.974 100.361 61.7204C100.406 61.0768 100.437 60.4203 100.455 59.7682C100.473 59.1103 99.9549 58.5628 99.2978 58.5441C98.6406 58.5269 98.0937 59.0443 98.0751 59.7022C98.0579 60.3214 98.0279 60.9449 97.9863 61.5555C97.9405 62.212 98.4359 62.781 99.0916 62.8254C99.4939 62.8527 99.8633 62.6778 100.098 62.3868L100.099 62.3883Z" fill="#91B3FA"/>
</g>
<path d="M86.7122 46.9757C86.6635 46.7435 86.4731 46.5672 86.2383 46.5371L79.5238 45.6786C78.1909 42.8091 76.3913 40.1302 74.1493 37.7709L75.8114 31.2049C75.8701 30.9741 75.7756 30.7333 75.5766 30.6029L68.7862 26.1453C68.5872 26.0149 68.3281 26.0249 68.1405 26.1711L62.7889 30.3148C59.7337 29.1968 56.5625 28.6135 53.4014 28.5332L49.9382 22.7096C49.8165 22.5061 49.5788 22.4015 49.3469 22.4488L41.3968 24.1042C41.1649 24.153 40.9888 24.3436 40.9587 24.5787L40.1011 31.3009C37.2349 32.6354 34.5591 34.437 32.2026 36.6816L25.6441 35.0175C25.4136 34.9588 25.173 35.0534 25.0428 35.2526L20.5903 42.0508C20.46 42.2501 20.47 42.5095 20.616 42.6973L24.755 48.055C23.6383 51.1137 23.0556 54.2885 22.9754 57.4533L17.1585 60.9205C16.9552 61.0423 16.8507 61.2803 16.898 61.5125L18.5515 69.4717C18.6002 69.7039 18.7906 69.8802 19.0254 69.9103L25.74 70.7688C27.0729 73.6384 28.8725 76.3172 31.1145 78.6765L29.4523 85.2425C29.3936 85.4733 29.4881 85.7155 29.6871 85.8445L36.4776 90.3021C36.6766 90.4326 36.9357 90.4225 37.1232 90.2763L42.4749 86.1326C45.53 87.2506 48.7012 87.834 51.8624 87.9142L55.3256 93.7378C55.4473 93.9413 55.6849 94.046 55.9169 93.9987L63.867 92.3432C64.0989 92.2944 64.275 92.1038 64.3051 91.8688L65.1626 85.1465C68.0288 83.8121 70.7046 82.0104 73.0612 79.7658L79.6197 81.4299C79.8502 81.4886 80.0907 81.394 80.221 81.1948L84.6735 74.3966C84.8038 74.1973 84.7938 73.9379 84.6477 73.7501L80.5088 68.3924C81.6255 65.3323 82.2082 62.1589 82.2883 58.9941L88.1052 55.5269C88.3085 55.4051 88.413 55.1672 88.3658 54.935L86.7122 46.9757Z" fill="#D8E7E8"/>
<path d="M58.1561 64.2401C54.8418 67.2888 49.6691 67.0709 46.624 63.7528C45.1479 62.146 44.3862 60.0591 44.4793 57.879C44.5709 55.6989 45.5058 53.6837 47.1122 52.2074C50.4265 49.1587 55.5991 49.3766 58.6443 52.6947C61.4146 55.7133 61.4833 60.2727 58.9779 63.3658C58.7288 63.6725 58.4553 63.9649 58.1561 64.2401ZM46.3806 57.9593C46.3104 59.632 46.8945 61.2301 48.0256 62.4628C50.3606 65.0055 54.3278 65.1746 56.8676 62.8369C59.4103 60.4991 59.5763 56.5274 57.2413 53.9847C54.9062 51.442 50.939 51.2728 48.3992 53.6106C48.1687 53.8227 47.9568 54.0492 47.7636 54.2871C46.9232 55.3248 46.4393 56.6005 46.382 57.9593H46.3806Z" fill="#BDD0FB"/>
<path d="M68.0301 70.9294C68.461 70.3977 68.8662 69.8415 69.247 69.2625C69.3672 69.0804 69.4832 68.8955 69.5963 68.7092C70.1561 67.7904 70.6429 66.8287 71.048 65.8383C71.0538 65.8254 71.0595 65.811 71.0652 65.7981C71.081 65.7594 71.0967 65.7207 71.111 65.6835C71.1411 65.6089 71.1697 65.533 71.1998 65.4584C71.2757 65.2606 71.2112 65.0442 71.0566 64.9166C71.0194 64.8865 70.975 64.8607 70.9278 64.8421C70.683 64.7475 70.4081 64.8708 70.3121 65.1159C69.8254 66.3801 69.1997 67.5984 68.451 68.7407C64.7372 74.4138 58.5065 77.4611 52.1886 77.3794C48.6738 77.3349 45.1333 76.3216 41.9821 74.2533C41.4295 73.8907 40.8998 73.5022 40.393 73.0923C36.9856 70.326 34.652 66.5033 33.7471 62.146C32.7077 57.1409 33.677 52.0297 36.4759 47.7541C42.2585 38.9248 54.1299 36.4552 62.9462 42.2415C63.4902 42.5984 64.0128 42.9811 64.5153 43.3882C66.6886 45.1526 68.4524 47.3742 69.6708 49.8983C69.7023 49.9628 69.7466 50.0187 69.7996 50.0603C69.9385 50.1735 70.1346 50.2022 70.3064 50.119C70.5426 50.0044 70.6429 49.7206 70.5283 49.4826C69.2484 46.8324 67.3973 44.5004 65.1152 42.6486C64.5883 42.2214 64.04 41.8187 63.4687 41.4446C54.213 35.3687 41.7459 37.9688 35.6799 47.2309C32.7407 51.7186 31.7228 57.085 32.8151 62.3395C33.7658 66.9147 36.2154 70.928 39.7917 73.8319C40.3228 74.2633 40.8798 74.6704 41.4596 75.0516C45.9436 77.9943 51.3024 79.0133 56.5509 77.9197C61.1208 76.968 65.1309 74.5141 68.0315 70.9323L68.0301 70.9294Z" fill="#BDD0FB"/>
<g opacity="0.3">
<path d="M136.62 14.6084C136.821 14.3605 136.844 14.0021 136.653 13.7269C136.3 13.2124 135.925 12.7021 135.539 12.2105C135.289 11.8908 134.828 11.8335 134.507 12.0843C134.187 12.3337 134.131 12.7967 134.381 13.1178C134.748 13.5865 135.106 14.0738 135.444 14.564C135.674 14.898 136.131 14.9825 136.466 14.7518C136.524 14.7102 136.576 14.6629 136.619 14.6084H136.62Z" fill="#91B3FA"/>
<path d="M132.946 10.32C132.66 10.608 132.194 10.6095 131.907 10.3228C131.181 9.59899 130.408 8.90526 129.613 8.25883C129.446 8.12267 129.275 7.98794 129.103 7.85464C128.783 7.60524 128.726 7.14371 128.975 6.82265C129.222 6.52882 129.685 6.44425 130.007 6.69365C130.187 6.83411 130.365 6.97458 130.539 7.11648C131.374 7.79301 132.183 8.52113 132.945 9.28079C133.214 9.54882 133.232 9.97595 132.998 10.2655C132.982 10.2841 132.965 10.3028 132.948 10.3214L132.946 10.32ZM126.021 5.74622C124.954 5.1084 123.839 4.53077 122.705 4.03054C122.333 3.86571 122.166 3.43285 122.329 3.06018C122.492 2.69039 122.926 2.51982 123.298 2.68322C124.486 3.20781 125.656 3.81267 126.774 4.48204C127.122 4.68987 127.237 5.1428 127.029 5.49109C127.01 5.52119 126.99 5.54986 126.967 5.57709C126.741 5.85659 126.337 5.93399 126.021 5.74479V5.74622ZM119.203 2.73912C118.015 2.38222 116.792 2.09842 115.568 1.89203C115.169 1.82466 114.898 1.44483 114.966 1.04493C115.033 0.643604 115.411 0.374139 115.812 0.441505C117.096 0.657937 118.379 0.957501 119.624 1.33016C120.014 1.44626 120.234 1.85763 120.118 2.24606C120.09 2.34065 120.044 2.42522 119.985 2.49832C119.803 2.72335 119.497 2.82798 119.203 2.74055V2.73912ZM111.856 1.50073C110.615 1.4477 109.359 1.47063 108.125 1.56953C107.72 1.60249 107.366 1.30006 107.333 0.894435C107.3 0.490238 107.603 0.134775 108.006 0.101809C109.302 -0.00282383 110.618 -0.0271903 111.919 0.0287092C112.324 0.0459091 112.639 0.389906 112.622 0.795536C112.615 0.958934 112.555 1.108 112.459 1.22697C112.317 1.40183 112.098 1.50933 111.856 1.4993V1.50073ZM104.429 2.09556C103.212 2.34495 102 2.67319 100.826 3.07021C100.443 3.20065 100.025 2.99282 99.8959 2.60725C99.7656 2.22169 99.9717 1.80459 100.358 1.67559C101.59 1.25993 102.859 0.917368 104.134 0.653637C104.532 0.571938 104.92 0.828502 105.001 1.22553C105.047 1.45056 104.985 1.67273 104.852 1.83756C104.749 1.96512 104.603 2.05972 104.43 2.09556H104.429ZM97.3704 4.47774C96.2522 5.01523 95.1584 5.62869 94.1176 6.30092C93.7769 6.52165 93.3216 6.42275 93.1011 6.08162C92.8821 5.74049 92.9794 5.28613 93.3202 5.06396C94.4111 4.3602 95.5607 3.71664 96.7333 3.15191C97.0998 2.97562 97.5379 3.13041 97.714 3.49591C97.8414 3.76108 97.7956 4.06494 97.6223 4.2785C97.5565 4.3602 97.472 4.429 97.3704 4.47774ZM91.1111 8.51397C90.1619 9.30803 89.2513 10.1723 88.4024 11.0825C88.1246 11.3792 87.6607 11.3949 87.363 11.1183C87.0666 10.8417 87.0537 10.3801 87.3272 10.0777C88.2177 9.12313 89.1726 8.21727 90.1676 7.38451C90.4797 7.12364 90.9421 7.16521 91.2027 7.47767C91.4318 7.75144 91.4275 8.14417 91.2099 8.4122C91.1798 8.44803 91.1469 8.48243 91.1097 8.51397H91.1111ZM83.025 17.4077C82.6699 17.2114 82.5411 16.7642 82.7372 16.4073C83.2812 15.4226 83.8883 14.4508 84.5397 13.522C84.6385 13.3801 84.7373 13.2411 84.8389 13.102C85.0666 12.7681 85.5376 12.7007 85.8654 12.9401C86.1933 13.1794 86.2663 13.6395 86.0272 13.9677C85.9327 14.0982 85.8382 14.23 85.7452 14.3648C85.121 15.2534 84.5411 16.1808 84.0229 17.1196C84.0014 17.1583 83.977 17.1942 83.9498 17.2271C83.7294 17.4995 83.3399 17.5826 83.0235 17.4063L83.025 17.4077Z" fill="#91B3FA"/>
</g>
<g opacity="0.3">
<path d="M134.9 52.1428C134.081 53.1289 133.193 54.072 132.264 54.9492C131.969 55.2273 131.504 55.2144 131.225 54.9177C130.946 54.621 130.964 54.1566 131.256 53.8771C132.143 53.0415 132.989 52.1414 133.77 51.2011C134.03 50.8886 134.493 50.8471 134.805 51.1065C135.115 51.3645 135.159 51.8232 134.907 52.1356C134.906 52.1385 134.903 52.1414 134.901 52.1428H134.9ZM136.164 49.2561C135.823 49.0353 135.726 48.5796 135.947 48.2384C136.609 47.2122 137.218 46.1343 137.753 45.0364C137.931 44.6738 138.372 44.519 138.737 44.6981C139.102 44.8759 139.252 45.3159 139.075 45.6814C138.514 46.8323 137.876 47.9604 137.181 49.0368C137.166 49.0597 137.151 49.0812 137.133 49.1013C136.9 49.3894 136.482 49.461 136.164 49.2546V49.2561ZM129.305 57.416C128.271 58.1742 127.182 58.8765 126.069 59.5015C125.716 59.7007 125.266 59.5746 125.069 59.2191C124.87 58.8651 124.996 58.4179 125.349 58.2172C126.412 57.6209 127.45 56.9516 128.437 56.2278C128.765 55.987 129.225 56.0586 129.464 56.3854C129.666 56.6606 129.647 57.0304 129.442 57.2841C129.404 57.3328 129.358 57.3758 129.305 57.4145V57.416ZM139.614 42.5768C139.231 42.4449 139.026 42.0264 139.159 41.6408C139.556 40.4856 139.886 39.2931 140.14 38.0991C140.224 37.7021 140.615 37.4484 141.012 37.5315C141.408 37.6161 141.663 38.0074 141.579 38.4044C141.314 39.6571 140.967 40.9084 140.551 42.1196C140.522 42.2027 140.479 42.2787 140.426 42.3432C140.237 42.5768 139.917 42.6786 139.616 42.5754L139.614 42.5768ZM122.605 61.177C121.422 61.6629 120.197 62.0814 118.963 62.4226C118.572 62.5301 118.167 62.2993 118.059 61.908C117.952 61.5167 118.181 61.1111 118.573 61.0036C119.75 60.6796 120.918 60.2797 122.046 59.8168C122.421 59.662 122.851 59.8426 123.006 60.2181C123.112 60.4761 123.06 60.7585 122.897 60.962C122.822 61.0537 122.724 61.1297 122.606 61.1784L122.605 61.177ZM115.199 63.2195C113.932 63.4087 112.642 63.5219 111.365 63.5563C110.959 63.5678 110.622 63.2482 110.61 62.8411C110.599 62.4355 110.918 62.0958 111.325 62.0857C112.541 62.0528 113.773 61.9438 114.982 61.7632C115.383 61.703 115.758 61.9811 115.817 62.3824C115.849 62.5946 115.786 62.7995 115.661 62.9543C115.549 63.0919 115.388 63.1908 115.199 63.2181V63.2195ZM107.516 63.4273C106.239 63.3069 104.959 63.1063 103.711 62.8325C103.314 62.7451 103.064 62.3538 103.15 61.9553C103.237 61.5583 103.629 61.3074 104.024 61.3934C105.214 61.6543 106.435 61.8449 107.652 61.9596C108.056 61.9983 108.354 62.3566 108.315 62.7608C108.301 62.9113 108.244 63.0461 108.155 63.155C108.004 63.3399 107.77 63.4488 107.515 63.4245L107.516 63.4273Z" fill="#91B3FA"/>
<path d="M141.99 34.9573C142.079 34.847 142.138 34.7094 142.15 34.5574C142.205 33.9296 142.241 33.2975 142.258 32.6798C142.269 32.2742 141.949 31.9345 141.543 31.9244C141.138 31.9144 140.8 32.234 140.789 32.6397C140.773 33.2302 140.739 33.8322 140.687 34.4313C140.653 34.8369 140.952 35.1924 141.356 35.2282C141.608 35.2497 141.843 35.1408 141.99 34.9573Z" fill="#91B3FA"/>
</g>
<path d="M133.123 24.1185C133.09 23.9622 132.962 23.8447 132.805 23.8246L128.311 23.2499C127.419 21.3292 126.215 19.5376 124.714 17.9581L125.827 13.5649C125.865 13.4101 125.802 13.2496 125.671 13.1622L121.127 10.1794C120.993 10.092 120.82 10.0992 120.694 10.1966L117.114 12.9701C115.069 12.2219 112.947 11.8306 110.833 11.779L108.515 7.88326C108.433 7.74709 108.274 7.67686 108.12 7.70839L102.8 8.81635C102.644 8.84932 102.526 8.97688 102.506 9.13455L101.932 13.6337C100.014 14.5267 98.2241 15.7321 96.6464 17.2342L92.2583 16.1206C92.1036 16.0819 91.9433 16.1449 91.856 16.2768L88.8766 20.8261C88.7893 20.9594 88.7965 21.1329 88.8938 21.259L91.6641 24.8437C90.9168 26.8905 90.5259 29.0147 90.4744 31.1317L86.5817 33.4523C86.4457 33.534 86.3755 33.6931 86.4084 33.8479L87.5151 39.1741C87.5481 39.3303 87.6755 39.4478 87.833 39.4679L92.327 40.0427C93.2189 41.9633 94.423 43.755 95.9234 45.3345L94.8109 49.7276C94.7723 49.881 94.8353 50.0429 94.967 50.1304L99.5111 53.1131C99.6443 53.2005 99.8175 53.1934 99.9435 53.0959L103.524 50.3224C105.569 51.0706 107.69 51.4619 109.805 51.5135L112.123 55.4093C112.204 55.5454 112.363 55.6157 112.518 55.5841L117.838 54.4762C117.994 54.4432 118.111 54.3157 118.132 54.158L118.706 49.6588C120.624 48.7658 122.414 47.5604 123.991 46.0583L128.379 47.172C128.533 47.2107 128.694 47.1476 128.782 47.0158L131.761 42.4664C131.848 42.3331 131.841 42.1597 131.744 42.0335L128.974 38.4488C129.721 36.402 130.11 34.2778 130.163 32.1608L134.056 29.8403C134.192 29.7586 134.262 29.5995 134.229 29.4447L133.123 24.1185Z" fill="#D8E7E8"/>
<path d="M114.081 35.7442C112.987 36.7504 111.568 37.2706 110.084 37.2076C108.6 37.1445 107.229 36.5081 106.225 35.4131C104.151 33.1542 104.3 29.6311 106.557 27.5484C108.815 25.4716 112.339 25.6221 114.413 27.881C115.418 28.976 115.938 30.3964 115.875 31.8814C115.823 33.0882 115.394 34.222 114.646 35.1436C114.475 35.3557 114.286 35.5564 114.082 35.7442H114.081ZM107.308 34.4169C108.046 35.2224 109.056 35.6911 110.147 35.737C111.238 35.7829 112.281 35.4002 113.086 34.6606C113.889 33.9195 114.359 32.9105 114.404 31.8183C114.45 30.7261 114.068 29.6812 113.329 28.8757C111.803 27.213 109.212 27.1041 107.551 28.6306C107.401 28.7682 107.265 28.9144 107.14 29.0692C105.885 30.62 105.919 32.9048 107.308 34.4169Z" fill="#BDD0FB"/>
<path d="M120.954 40.3982C121.247 40.037 121.524 39.6571 121.784 39.2601C122.301 38.4704 122.739 37.629 123.086 36.7532C123.101 36.7145 123.116 36.6744 123.131 36.6343C123.249 36.329 123.15 35.9936 122.909 35.7986C122.851 35.7513 122.783 35.7112 122.71 35.684C122.333 35.5378 121.907 35.7284 121.761 36.1054C121.446 36.9252 121.04 37.715 120.557 38.4517C120.531 38.4919 120.504 38.5334 120.477 38.5721C119.317 40.3064 117.77 41.6867 115.97 42.6299C114.994 43.1415 113.941 43.5257 112.838 43.7665C112.829 43.7679 112.819 43.7708 112.81 43.7722C112.783 43.7779 112.756 43.7837 112.727 43.7894C109.49 44.4631 106.186 43.8353 103.421 42.0207C103.064 41.7856 102.72 41.5348 102.392 41.2696C100.187 39.4794 98.6755 37.0041 98.0899 34.1833C97.417 30.9426 98.0441 27.6345 99.8566 24.8667C101.669 22.1018 104.449 20.2041 107.686 19.529C110.923 18.8554 114.228 19.4832 116.992 21.2977C117.345 21.5285 117.682 21.7765 118.007 22.0402C119.415 23.1826 120.556 24.6202 121.345 26.2542C121.393 26.3545 121.462 26.4391 121.544 26.505C121.758 26.6784 122.062 26.7243 122.327 26.5967C122.692 26.419 122.845 25.9804 122.669 25.6135C121.786 23.7846 120.509 22.1764 118.935 20.8978C118.571 20.6026 118.194 20.326 117.8 20.0665C114.706 18.0355 111.009 17.3332 107.387 18.0871C103.767 18.841 100.654 20.958 98.6282 24.0583C96.5996 27.1543 95.898 30.8566 96.6511 34.4814C97.3068 37.6376 98.9962 40.4068 101.464 42.4106C101.831 42.7073 102.215 42.9896 102.614 43.2519C108.603 47.1821 116.539 45.852 120.955 40.3982H120.954Z" fill="#BDD0FB"/>
<path d="M46.9414 387.99C46.9414 387.99 46.1139 392.433 45.6873 396.835C45.5198 398.555 46.8326 400.063 48.5563 400.151C54.4148 400.451 66.9448 401.047 71.4446 400.888C72.1217 400.864 72.5698 400.176 72.325 399.544C72.1203 399.015 71.7194 398.583 71.2069 398.341L50.5922 388.616L46.9414 387.99Z" fill="#002F4B"/>
<path d="M46.3237 385.368L46.9035 390.697C46.9035 390.697 50.5142 392.423 53.0096 390.543L51.5636 384.596L46.3223 385.368H46.3237Z" fill="url(#paint2_linear_202_912)"/>
<path d="M47.751 285.29C47.4647 286.677 45.6279 354.649 52.5958 385.185C52.7089 385.684 52.4527 386.192 51.9788 386.382C50.8606 386.826 48.6716 387.465 46.0559 387.528C45.2456 387.548 44.524 387.014 44.3036 386.233C42.2963 379.145 32.6912 343.634 31.7163 309.791C30.6268 271.974 31.7291 308.504 31.7291 308.504L32.8015 285.145L47.7525 285.291L47.751 285.29Z" fill="#013858"/>
<path d="M23.1014 390.084C23.1014 390.084 21.8301 392.318 20.563 398.278C20.334 399.354 21.077 400.394 22.1694 400.511C24.1022 400.72 27.0786 400.994 29.4652 401C30.5647 401.003 31.4323 400.052 31.3106 398.957C31.0673 396.776 30.2784 393.193 27.7601 390.382L23.1 390.084H23.1014Z" fill="#044165"/>
<path d="M22.0684 383.225L23.4657 391.291C23.4657 391.291 24.9131 392.39 27.8037 391.63L27.1823 382.962L22.0684 383.225Z" fill="url(#paint3_linear_202_912)"/>
<path d="M19.0007 287.101C12.7228 322.913 19.4431 375.766 21.781 386.121C21.9242 386.754 22.4295 387.244 23.0681 387.356C24.1533 387.547 25.9429 387.712 27.7139 387.214C28.3238 387.044 28.7561 386.498 28.7876 385.864C29.1942 377.515 29.094 326.234 34.8193 306.022C35.1099 304.998 35.7441 304.109 36.6175 303.5L47.4266 295.96L48.3672 283.617L19.0007 287.1V287.101Z" fill="#0E527B"/>
<path d="M57.4782 219.499C39.6896 219.034 20.0127 223.817 20.0127 223.817C14.4148 254.745 18.4493 290.518 18.4493 290.518C32.1877 294.266 47.78 288.588 47.78 288.588C50.1924 275.66 61.2206 239.321 61.2206 239.321C69.9238 238.324 77.1079 235.881 83.0365 232.619C78.5883 227.356 76.531 220.694 75.6476 216.76C69.3382 218.656 62.9644 219.64 57.4768 219.497L57.4782 219.499Z" fill="#C4903C"/>
<path d="M110.279 193.766C108.551 191.636 106.33 192.615 106.33 192.615C103.607 203.662 89.7944 212.508 75.6494 216.761C76.5328 220.695 78.5901 227.359 83.0383 232.621C106.569 219.669 110.28 193.766 110.28 193.766H110.279Z" fill="url(#paint4_linear_202_912)"/>
<path d="M109.848 194.299C110.025 194.883 107.899 195.75 106.675 193.356C106.642 192.215 105.997 187.321 106.685 186.398C110.359 181.483 117.449 175.345 117.449 175.345C118.626 176.531 117.636 177.674 117.636 177.674L114.192 181.199C114.893 182.496 115.752 183.594 116.146 185.159C116.444 186.345 116.242 187.606 115.636 188.677C115.028 189.75 114.197 191.146 113.414 192.238C111.932 194.304 109.848 194.299 109.848 194.299Z" fill="url(#paint5_linear_202_912)"/>
<path d="M112.679 183.494L109.545 186.102L108.544 188.72L111.286 191.824C111.286 191.824 112.268 186.621 112.971 185.5C113.674 184.379 113.32 183.83 112.679 183.494Z" fill="url(#paint6_linear_202_912)"/>
<path d="M26.6701 241.13L20.0114 223.819C20.0114 223.819 3.28653 234.963 0.416016 249.269C3.55425 249.529 9.25948 250.402 14.8244 253.283C16.1172 246.528 26.6701 241.13 26.6701 241.13Z" fill="#B77F2E"/>
<path d="M41.0389 257.498C41.0389 257.498 22.2811 267.876 16.0719 258.802C14.7834 256.917 14.4885 255.055 14.8264 253.285C9.26146 250.404 3.5548 249.533 0.417999 249.27C-0.446733 253.583 -0.0558855 258.183 2.43666 262.851C13.2716 283.151 43.4642 262.127 43.4642 262.127L41.0389 257.498Z" fill="url(#paint7_linear_202_912)"/>
<path d="M39.5937 204.867L33.7768 221.203C33.6808 221.474 33.7897 221.775 34.0388 221.917C35.5735 222.785 41.1098 225.308 47.8502 221.118C48.5517 220.683 49.0341 219.965 49.1487 219.145L51.1172 204.978L39.5951 204.867H39.5937Z" fill="url(#paint8_linear_202_912)"/>
<path d="M52.056 189.807C52.056 189.807 58.1606 201.581 57.3188 206.306C56.477 211.031 48.776 210.618 42.0858 206.711L37.5059 194.017L52.0574 189.809L52.056 189.807Z" fill="url(#paint9_linear_202_912)"/>
<path d="M42.4419 200.5C42.7168 200.381 42.8198 200.047 42.6595 199.795C42.1684 199.028 41.2493 197.466 40.9644 196.103C40.9644 196.103 39.8534 195.376 43.8249 194.464C47.7949 193.553 53.7178 192.135 54.992 188.771C56.2346 185.492 53.1322 177.183 47.9939 183.73C47.7992 183.98 47.4198 183.981 47.2294 183.729C46.4076 182.637 44.2415 180.366 41.192 181.701C38.3387 182.95 37.998 185.032 38.0266 186.084C38.0352 186.393 37.7574 186.631 37.4539 186.57C36.0194 186.282 32.5748 186.013 30.9312 189.538C29.5783 192.442 30.4244 194.102 31.2004 194.916C31.4523 195.18 31.3364 195.61 30.987 195.713C30.0393 195.994 28.8138 196.783 28.914 198.999C29.0543 202.062 32.476 201.826 33.451 201.695C33.6113 201.674 33.7717 201.73 33.8776 201.852C34.7037 202.785 38.4275 206.748 42.4934 207.26C42.8456 207.304 43.1219 206.959 43.0103 206.62L41.298 201.476C41.2178 201.237 41.3352 200.977 41.5657 200.877L42.4433 200.499L42.4419 200.5Z" fill="#013858"/>
<path d="M43.1434 201.235C43.1434 201.235 38.7467 198.154 38.3988 200.711C38.0509 203.268 42.3488 204.458 44.492 203.523L43.1434 201.235Z" fill="url(#paint10_linear_202_912)"/>
<path d="M37.2052 273.899L47.4231 238.173C47.5391 237.768 47.8841 237.472 48.3036 237.424C50.1547 237.207 55.5192 236.601 61.7141 236.076C69.1745 235.444 77.8391 234.933 83.016 235.368C83.7519 235.43 84.1971 236.21 83.8693 236.872C80.9257 242.836 68.8152 267.092 62.7506 275.038C62.5502 275.302 62.2395 275.455 61.9074 275.453L38.1988 275.232C37.5087 275.225 37.0148 274.562 37.2052 273.899Z" fill="#015163"/>
<path d="M39.6739 265.267C39.6739 265.267 38.2508 259.408 38.8249 257.328C39.399 255.25 40.5114 252.577 44.2195 253.17C47.9275 253.764 52.3013 255.327 52.3013 255.327C52.3013 255.327 52.0808 258.035 49.2619 257.162L51.0099 258.516C51.0099 258.516 50.7608 260.685 48.3799 259.527L50.0049 261.323C50.0049 261.323 48.9827 263.103 47.2317 261.962C45.4808 260.82 44.6404 265.974 39.6739 265.269V265.267Z" fill="url(#paint11_linear_202_912)"/>
<path d="M61.0322 246.74C61.0322 248.399 62.3751 249.743 64.0316 249.743C65.688 249.743 67.031 248.399 67.031 246.74C67.031 245.082 65.688 243.738 64.0316 243.738C62.3751 243.738 61.0322 245.082 61.0322 246.74Z" fill="#91B3FA"/>
<path d="M48.5794 248.72L50.6596 241.655C50.9145 240.788 51.6117 240.135 52.4779 239.955C58.9992 238.593 76.8464 238.304 77.0254 238.301L77.0139 237.502C76.2781 237.514 58.9104 237.796 52.3147 239.174C51.1607 239.414 50.233 240.279 49.8937 241.43L47.8135 248.495L48.578 248.721L48.5794 248.72Z" fill="#BDD0FB"/>
<path d="M288.448 336.392H283.55V389.419H288.448V336.392Z" fill="#A3CCCB"/>
<path d="M307.447 390.441H264.55V387.603C264.55 387.406 264.709 387.249 264.903 387.249H307.092C307.288 387.249 307.446 387.408 307.446 387.603V390.441H307.447Z" fill="#A3CCCB"/>
<path d="M309.961 323.764H263.837C260.745 323.764 258.239 326.273 258.239 329.368V334.435C258.239 337.53 260.745 340.039 263.837 340.039H309.961C313.053 340.039 315.559 337.53 315.559 334.435V329.368C315.559 326.273 313.053 323.764 309.961 323.764Z" fill="#A3CCCB"/>
<path d="M242.582 373.314C242.582 373.314 226.748 380.142 227.656 387.288C227.656 387.288 244.023 384.146 246.952 379.462C249.881 374.777 248.268 372.066 248.268 372.066L242.582 373.316V373.314Z" fill="#165880"/>
<path d="M246.461 365.511L247.265 372.468C247.387 373.517 246.804 374.554 245.811 374.912C245.314 375.091 244.661 375.215 243.805 375.219C242.597 375.225 241.527 374.431 241.205 373.265L239.647 367.638L246.462 365.512L246.461 365.511Z" fill="url(#paint12_linear_202_912)"/>
<path d="M281.05 312.16C281.05 312.16 251.927 310.811 237.435 319.271C222.944 327.732 238.17 368.337 238.17 368.337C238.17 368.337 241.955 369.152 247.405 366.236C247.405 366.236 239.627 336.511 253.138 331.339C268.329 325.526 284.041 326.939 284.041 326.939L281.13 313.077L281.048 312.158L281.05 312.16Z" fill="#064266"/>
<path d="M230.838 384.151C234.15 383.425 243.97 379.351 245.461 379.406C246.953 379.46 249.066 381.697 249.066 381.697C249.066 381.697 249.43 382.92 248.363 384.676C245.834 386.651 240.383 390.277 234.045 390.674C229.384 390.967 226.579 389.109 224.976 387.309C226.38 385.94 228.634 384.634 230.838 384.15V384.151Z" fill="#002F4B"/>
<path d="M234.046 390.676C240.382 390.279 245.833 386.653 248.364 384.677C247.642 385.864 246.269 387.293 243.688 388.754C237.284 392.376 226.7 391.848 224.602 391.033C222.922 390.379 223.441 388.807 224.977 387.31C226.582 389.112 229.386 390.968 234.047 390.676H234.046Z" fill="#001624"/>
<path d="M252.543 378.057C252.326 378.878 250.006 381.343 248.666 382.719C248.028 383.373 247.104 383.653 246.212 383.458C245.646 383.334 245.008 383.141 244.456 382.841C243.627 382.391 243.34 381.336 243.794 380.509L247.185 374.334L252.543 378.057Z" fill="url(#paint13_linear_202_912)"/>
<path d="M309.912 309.715C309.912 309.715 312.455 327.77 305.104 331.46C297.754 335.151 281.634 337.566 276.08 346.931C270.528 356.295 260.555 374.676 251.48 379.956C251.48 379.956 246.297 378.269 244.782 375.716C244.782 375.716 255.554 347.365 260.048 340.474C263.939 334.507 269.63 325.909 277.717 322.19C280.032 321.126 280.212 318.667 279.805 316.15L279.064 311.567L309.913 309.715H309.912Z" fill="#013858"/>
<path d="M241.789 289.248C252.095 292.194 256.706 263.159 256.665 262.454L272.463 280.948C272.463 280.948 263.05 297.531 248.835 299.297C245.238 299.745 242.179 299.121 239.613 297.944C241.505 294.844 241.935 291.782 241.789 289.25V289.248Z" fill="#B77F2E"/>
<path d="M222.706 279.746C227.198 277.898 231.007 281.584 231.007 281.584C235.457 286.145 238.987 288.447 241.789 289.248C241.937 291.781 241.504 294.843 239.613 297.943C234.061 295.396 230.824 290.249 229.491 287.679C229.012 286.754 227.886 286.363 226.948 286.816C225.996 287.278 225.016 287.98 224.954 288.935C224.832 290.818 222.595 290.928 222.582 290.233C222.569 289.538 224.316 285.818 224.316 285.818C224.316 285.818 219.156 289.132 217.147 290.399C215.139 291.666 213.428 289.575 213.428 289.575C213.428 289.575 218.217 281.593 222.708 279.744L222.706 279.746Z" fill="url(#paint14_linear_202_912)"/>
<path d="M305.942 250.506C305.942 250.506 292.095 241.047 258.651 258.152C258.651 258.152 255.206 262.524 256.82 267.45C258.433 272.378 278.291 299.046 279.062 311.565C279.062 311.565 292.636 319.564 310.257 311.634C310.257 311.634 316.166 278.576 305.942 250.504V250.506Z" fill="#C4903C"/>
<path d="M277.108 238.414L282.58 249.15C283.124 250.216 283.009 251.506 282.263 252.441C280.756 254.331 277.61 256.871 272.241 255.234C270.644 254.747 269.422 253.447 269.037 251.82L266.201 239.838L277.108 238.414Z" fill="url(#paint15_linear_202_912)"/>
<path d="M316.196 287.993C317.134 281.467 299.909 268.819 299.909 268.819L305.942 250.506C305.942 250.506 338.811 273.989 331.899 293.166C330.908 295.915 329.43 297.917 327.628 299.337C324.147 292.191 319.427 289.221 316.197 287.993H316.196Z" fill="#B77F2E"/>
<path d="M292.166 289.804C292.166 289.804 311.651 295.252 315.693 289.314C315.966 288.911 316.128 288.467 316.197 287.993C319.427 289.221 324.147 292.191 327.627 299.337C318.376 306.623 300.538 298.456 295.692 296.008C294.895 295.605 293.979 295.526 293.125 295.793C291.401 296.332 288.415 297.167 286.75 297.076C284.315 296.942 281.702 305.75 277.559 303.52C277.559 303.52 279.441 288.47 292.166 289.803V289.804Z" fill="url(#paint16_linear_202_912)"/>
<path d="M270.092 220.87C269.919 221.021 262.7 233.643 259.025 240.077C257.903 242.04 258.743 244.542 260.821 245.433L262.413 246.115C264.587 247.048 269.265 247.83 271.106 246.342L282.709 234.078C282.709 234.078 273.995 217.488 270.091 220.869L270.092 220.87Z" fill="url(#paint17_linear_202_912)"/>
<path d="M285.981 230.733C287.404 229.933 289.115 228.312 287.784 225.444C286.429 222.53 283.754 222.276 282.03 222.463C281.333 222.537 280.703 222.094 280.499 221.422C280.383 221.04 280.101 220.701 279.49 220.605C278.667 220.475 278.156 219.633 278.37 218.826C278.783 217.277 278.713 215.173 276.224 213.665C271.808 210.988 267.679 214.876 266.529 218.256C265.379 221.636 270.333 224.266 273.496 224.803C275.899 225.212 277.073 227.988 277.497 229.295C277.632 229.71 277.567 230.161 277.328 230.525L273.801 235.892C274.771 237.114 275.63 238.406 276.478 239.711C276.796 239.369 277.073 239.084 277.29 238.884C278.821 237.478 281.547 238.205 282.67 238.591C283.038 238.717 283.437 238.688 283.784 238.509C285.005 237.877 287.473 236.101 285.45 232.741C285.026 232.039 285.267 231.133 285.981 230.73V230.733Z" fill="#013858"/>
<path d="M275.193 242.008C275.193 242.008 277.448 236.204 280.012 236.528C282.576 236.852 284.494 239.502 281.184 242.254C277.068 245.677 275.191 242.009 275.191 242.009L275.193 242.008Z" fill="url(#paint18_linear_202_912)"/>
<path d="M267.286 302.224C267.252 302.226 267.216 302.227 267.182 302.227L221.662 302.177C220.537 302.177 219.626 301.261 219.626 300.134C219.626 299.008 220.544 298.076 221.666 298.096L267.186 298.146C268.312 298.146 269.222 299.062 269.222 300.187C269.222 301.28 268.363 302.17 267.286 302.223V302.224Z" fill="#003A48"/>
<path d="M180.741 260.847H218.651C221.447 260.847 223.992 262.463 225.186 264.995L242.711 302.2H195.601C193.798 302.2 192.179 301.098 191.517 299.419L177.927 264.992C177.142 263.003 178.605 260.847 180.743 260.847H180.741Z" fill="url(#paint19_linear_202_912)"/>
<path d="M207.449 279.923C208.27 282.479 207.663 284.96 206.093 285.466C204.522 285.972 202.584 284.311 201.762 281.755C200.94 279.199 201.547 276.718 203.118 276.212C204.688 275.706 206.627 277.368 207.449 279.923Z" fill="#91B3FA"/>
<path d="M186.887 399.968C186.635 399.968 186.379 399.919 186.133 399.816C185.162 399.412 184.714 398.321 185.132 397.381L225.249 306.988C225.666 306.048 226.791 305.614 227.762 306.018C228.732 306.422 229.181 307.513 228.762 308.453L188.645 398.846C188.335 399.547 187.629 399.968 186.887 399.968Z" fill="#A3CCCB"/>
<path d="M232.081 399.968C231.34 399.968 230.634 399.548 230.323 398.846L190.206 308.453C189.788 307.513 190.238 306.422 191.207 306.018C192.176 305.614 193.303 306.048 193.719 306.988L233.836 397.381C234.255 398.321 233.805 399.412 232.836 399.816C232.589 399.919 232.333 399.968 232.081 399.968Z" fill="#A3CCCB"/>
<path d="M311.068 399.968C310.816 399.968 310.56 399.919 310.314 399.816C309.343 399.412 308.895 398.321 309.313 397.381L349.43 306.988C349.848 306.048 350.972 305.614 351.942 306.018C352.913 306.422 353.361 307.513 352.943 308.453L312.826 398.846C312.515 399.547 311.81 399.968 311.068 399.968Z" fill="#A3CCCB"/>
<path d="M356.262 399.968C355.52 399.968 354.814 399.548 354.504 398.846L314.387 308.453C313.969 307.513 314.418 306.422 315.388 306.018C316.357 305.614 317.484 306.048 317.9 306.988L358.017 397.381C358.435 398.321 357.986 399.412 357.016 399.816C356.77 399.919 356.514 399.968 356.262 399.968Z" fill="#A3CCCB"/>
<path d="M360.967 304.199C361.069 303.606 360.93 302.994 360.588 302.528C360.246 302.062 359.735 301.793 359.196 301.793H176.689C175.98 301.793 175.32 302.197 174.94 302.866C174.557 303.536 174.507 304.376 174.804 305.097L176.781 309.894C177.233 310.993 178.215 311.696 179.295 311.696H357.942C358.947 311.696 359.81 310.897 360.001 309.792L360.967 304.199Z" fill="#A3CCCB"/>
</g>
<defs>
<linearGradient id="paint0_linear_202_912" x1="133.297" y1="186.589" x2="265.637" y2="106.625" gradientUnits="userSpaceOnUse">
<stop stop-color="#00686D"/>
<stop offset="1" stop-color="#003D6D"/>
</linearGradient>
<linearGradient id="paint1_linear_202_912" x1="177.884" y1="186.566" x2="271.591" y2="108.928" gradientUnits="userSpaceOnUse">
<stop stop-color="#00686D"/>
<stop offset="1" stop-color="#003D6D"/>
</linearGradient>
<linearGradient id="paint2_linear_202_912" x1="46.2379" y1="387.796" x2="52.9722" y2="387.86" gradientUnits="userSpaceOnUse">
<stop stop-color="#FEBBBA"/>
<stop offset="1" stop-color="#FF928E"/>
</linearGradient>
<linearGradient id="paint3_linear_202_912" x1="21.9697" y1="387.221" x2="27.7849" y2="387.275" gradientUnits="userSpaceOnUse">
<stop stop-color="#FEBBBA"/>
<stop offset="1" stop-color="#FF928E"/>
</linearGradient>
<linearGradient id="paint4_linear_202_912" x1="75.6149" y1="212.156" x2="110.024" y2="212.48" gradientUnits="userSpaceOnUse">
<stop stop-color="#FEBBBA"/>
<stop offset="1" stop-color="#FF928E"/>
</linearGradient>
<linearGradient id="paint5_linear_202_912" x1="102.47" y1="206.738" x2="78.8428" y2="259.089" gradientUnits="userSpaceOnUse">
<stop stop-color="#FEBBBA"/>
<stop offset="1" stop-color="#FF928E"/>
</linearGradient>
<linearGradient id="paint6_linear_202_912" x1="110.076" y1="189.191" x2="119.866" y2="174.463" gradientUnits="userSpaceOnUse">
<stop stop-color="#FEBBBA"/>
<stop offset="1" stop-color="#FF928E"/>
</linearGradient>
<linearGradient id="paint7_linear_202_912" x1="-0.135473" y1="260.234" x2="43.4056" y2="260.644" gradientUnits="userSpaceOnUse">
<stop stop-color="#FEBBBA"/>
<stop offset="1" stop-color="#FF928E"/>
</linearGradient>
<linearGradient id="paint8_linear_202_912" x1="31.9442" y1="236.322" x2="48.4269" y2="204.363" gradientUnits="userSpaceOnUse">
<stop stop-color="#FEBBBA"/>
<stop offset="1" stop-color="#FF928E"/>
</linearGradient>
<linearGradient id="paint9_linear_202_912" x1="55.2499" y1="203.331" x2="36.4192" y2="191.612" gradientUnits="userSpaceOnUse">
<stop stop-color="#FEBBBA"/>
<stop offset="1" stop-color="#FF928E"/>
</linearGradient>
<linearGradient id="paint10_linear_202_912" x1="50.2376" y1="207.594" x2="33.2944" y2="197.051" gradientUnits="userSpaceOnUse">
<stop stop-color="#FEBBBA"/>
<stop offset="1" stop-color="#FF928E"/>
</linearGradient>
<linearGradient id="paint11_linear_202_912" x1="38.6889" y1="259.21" x2="52.3027" y2="259.21" gradientUnits="userSpaceOnUse">
<stop stop-color="#FEBBBA"/>
<stop offset="1" stop-color="#FF928E"/>
</linearGradient>
<linearGradient id="paint12_linear_202_912" x1="247.73" y1="370.965" x2="239.321" y2="369.106" gradientUnits="userSpaceOnUse">
<stop stop-color="#FEBBBA"/>
<stop offset="1" stop-color="#FF928E"/>
</linearGradient>
<linearGradient id="paint13_linear_202_912" x1="252.093" y1="380.082" x2="244.2" y2="378.337" gradientUnits="userSpaceOnUse">
<stop stop-color="#FEBBBA"/>
<stop offset="1" stop-color="#FF928E"/>
</linearGradient>
<linearGradient id="paint14_linear_202_912" x1="242.076" y1="290.623" x2="214.542" y2="284.536" gradientUnits="userSpaceOnUse">
<stop stop-color="#FEBBBA"/>
<stop offset="1" stop-color="#FF928E"/>
</linearGradient>
<linearGradient id="paint15_linear_202_912" x1="283.387" y1="248.77" x2="265.12" y2="244.731" gradientUnits="userSpaceOnUse">
<stop stop-color="#FEBBBA"/>
<stop offset="1" stop-color="#FF928E"/>
</linearGradient>
<linearGradient id="paint16_linear_202_912" x1="297.879" y1="294.489" x2="370.529" y2="396.114" gradientUnits="userSpaceOnUse">
<stop stop-color="#FEBBBA"/>
<stop offset="1" stop-color="#FF928E"/>
</linearGradient>
<linearGradient id="paint17_linear_202_912" x1="273.277" y1="225.339" x2="264.079" y2="268.433" gradientUnits="userSpaceOnUse">
<stop stop-color="#FEBBBA"/>
<stop offset="1" stop-color="#FF928E"/>
</linearGradient>
<linearGradient id="paint18_linear_202_912" x1="276.886" y1="266.42" x2="279.166" y2="239.609" gradientUnits="userSpaceOnUse">
<stop stop-color="#FEBBBA"/>
<stop offset="1" stop-color="#FF928E"/>
</linearGradient>
<linearGradient id="paint19_linear_202_912" x1="225.371" y1="266.396" x2="199.316" y2="293.903" gradientUnits="userSpaceOnUse">
<stop stop-color="#00686D"/>
<stop offset="1" stop-color="#013858"/>
</linearGradient>
<clipPath id="clip0_202_912">
<rect width="361" height="401" fill="white"/>
</clipPath>
</defs>
</svg>
