<svg width="18" height="18" viewBox="0 0 18 18" fill="none" xmlns="http://www.w3.org/2000/svg">
<g clip-path="url(#clip0_29_336)">
<path d="M9 16.5C7.39182 16.5 6.23455 16.4992 5.33227 16.4117C4.44034 16.3252 3.86977 16.1591 3.41443 15.873C2.89401 15.546 2.45394 15.106 2.12693 14.5856C1.84091 14.1302 1.67466 13.5597 1.5883 12.6677C1.5008 11.7655 1.5 10.6082 1.5 9C1.5 7.39182 1.5008 6.23455 1.5883 5.33227C1.67466 4.44034 1.84091 3.86977 2.12693 3.41443C2.45393 2.89399 2.89399 2.45393 3.41443 2.12693C3.86977 1.84091 4.44034 1.67466 5.33227 1.5883C6.23443 1.5008 7.3917 1.5 9 1.5C10.6082 1.5 11.7655 1.5008 12.6677 1.5883C13.5597 1.67466 14.1302 1.84091 14.5856 2.12693C15.106 2.45394 15.546 2.89401 15.873 3.41443C16.1591 3.86977 16.3252 4.44034 16.4117 5.33227C16.4992 6.23455 16.5 7.39182 16.5 9C16.5 10.6082 16.4992 11.7655 16.4117 12.6677C16.3252 13.5597 16.1591 14.1302 15.873 14.5856C15.546 15.106 15.106 15.546 14.5856 15.873C14.1302 16.1591 13.5597 16.3252 12.6677 16.4117C11.7655 16.4992 10.6082 16.5 9 16.5Z" fill="#C7D4DE" stroke="#C7D4DE" stroke-width="2"/>
<path d="M9 12.75C10.6569 12.75 12 11.4069 12 9.75C12 8.09315 10.6569 6.75 9 6.75C7.34315 6.75 6 8.09315 6 9.75C6 11.4069 7.34315 12.75 9 12.75Z" fill="#CCD8E2" stroke="white" stroke-width="2"/>
<path d="M12.6562 6.1875C13.1222 6.1875 13.5 5.80974 13.5 5.34375C13.5 4.87776 13.1222 4.5 12.6562 4.5M12.6562 6.1875V4.5M12.6562 6.1875C12.1903 6.1875 11.8125 5.80974 11.8125 5.34375C11.8125 4.87776 12.1903 4.5 12.6562 4.5M12.6562 6.1875V4.5" fill="#FEFEFF" stroke="black" stroke-width="4.16667"/>
</g>
<defs>
<clipPath id="clip0_29_336">
<rect width="18" height="18" fill="white"/>
</clipPath>
</defs>
</svg>
