<svg width="23" height="22" viewBox="0 0 23 22" fill="none" xmlns="http://www.w3.org/2000/svg">
<path d="M19.182 19.369C18.9987 19.369 18.8245 19.2957 18.6962 19.1673L12.8478 13.319C12.582 13.0532 12.582 12.6132 12.8478 12.3473L19.9337 5.26151C20.1078 5.08735 20.3736 5.02318 20.612 5.08734C20.8503 5.16068 21.0336 5.35318 21.0886 5.59151C21.2628 6.37068 21.3545 7.24151 21.3545 8.24984V13.7498C21.3545 16.289 20.8228 18.0032 19.6678 19.1673C19.5395 19.2957 19.347 19.3232 19.182 19.369ZM14.3053 12.8332L19.127 17.6548C19.7045 16.7657 19.9795 15.5007 19.9795 13.7498V8.24984C19.9795 7.87401 19.9703 7.52568 19.9428 7.19568L14.3053 12.8332Z" fill="#39A57E"/>
<path d="M6.24765 20.6068C6.19265 20.6068 6.14684 20.5977 6.09184 20.5885C3.05767 19.8918 1.646 17.7193 1.646 13.7502V8.25016C1.646 3.27266 3.77266 1.146 8.75016 1.146H14.2502C18.2193 1.146 20.3918 2.55767 21.0885 5.59184C21.1435 5.821 21.0702 6.0685 20.9052 6.2335L6.73349 20.4052C6.60515 20.5335 6.43099 20.6068 6.24765 20.6068ZM8.75016 2.521C4.52433 2.521 3.021 4.02433 3.021 8.25016V13.7502C3.021 16.931 3.901 18.526 6.03684 19.1585L19.6493 5.546C19.026 3.41017 17.4218 2.53016 14.241 2.53016H8.75016V2.521Z" fill="#39A57E"/>
<path d="M14.2503 20.8535H8.75034C7.74201 20.8535 6.88035 20.771 6.09202 20.5877C5.84452 20.5327 5.652 20.3493 5.58783 20.111C5.5145 19.8727 5.58783 19.616 5.762 19.4327L12.8478 12.3468C13.1137 12.081 13.5537 12.081 13.8195 12.3468L19.6678 18.1952C19.7962 18.3235 19.8695 18.4977 19.8695 18.681C19.8695 18.8643 19.7962 19.0385 19.6678 19.1668C18.5037 20.3218 16.7895 20.8535 14.2503 20.8535ZM7.69618 19.4418C8.02618 19.4693 8.37451 19.4785 8.75034 19.4785H14.2503C16.0103 19.4785 17.2662 19.2035 18.1554 18.626L13.3337 13.8043L7.69618 19.4418Z" fill="#39A57E"/>
<path d="M8.86003 12.2005C8.28253 12.2005 7.70502 11.9896 7.24669 11.5588C5.78919 10.1746 5.20254 8.65298 5.55087 7.16798C5.89921 5.64631 7.22836 4.61963 8.86003 4.61963C10.4917 4.61963 11.8209 5.64631 12.1692 7.16798C12.5084 8.66214 11.9217 10.1746 10.4642 11.5588C10.015 11.9805 9.43753 12.2005 8.86003 12.2005ZM6.8892 7.47046C6.59587 8.71713 7.43919 9.83547 8.20003 10.5596C8.57586 10.9171 9.15336 10.9171 9.52003 10.5596C10.2717 9.84464 11.115 8.7263 10.8309 7.47046C10.5834 6.37963 9.61169 5.98547 8.86003 5.98547C8.10836 5.98547 7.14587 6.37963 6.8892 7.47046Z" fill="#39A57E"/>
<path d="M8.88737 8.69954C8.3832 8.69954 7.9707 8.28704 7.9707 7.78288C7.9707 7.27871 8.37404 6.86621 8.88737 6.86621H8.89655C9.40071 6.86621 9.81321 7.27871 9.81321 7.78288C9.81321 8.28704 9.39154 8.69954 8.88737 8.69954Z" fill="#39A57E"/>
<path d="M19.182 19.369C18.9987 19.369 18.8245 19.2957 18.6962 19.1673L12.8478 13.319C12.582 13.0532 12.582 12.6132 12.8478 12.3473L19.9337 5.26151C20.1078 5.08735 20.3736 5.02318 20.612 5.08734C20.8503 5.16068 21.0336 5.35318 21.0886 5.59151C21.2628 6.37068 21.3545 7.24151 21.3545 8.24984V13.7498C21.3545 16.289 20.8228 18.0032 19.6678 19.1673C19.5395 19.2957 19.347 19.3232 19.182 19.369ZM14.3053 12.8332L19.127 17.6548C19.7045 16.7657 19.9795 15.5007 19.9795 13.7498V8.24984C19.9795 7.87401 19.9703 7.52568 19.9428 7.19568L14.3053 12.8332Z" fill="#39A57E"/>
<path d="M6.24765 20.6068C6.19265 20.6068 6.14684 20.5977 6.09184 20.5885C3.05767 19.8918 1.646 17.7193 1.646 13.7502V8.25016C1.646 3.27266 3.77266 1.146 8.75016 1.146H14.2502C18.2193 1.146 20.3918 2.55767 21.0885 5.59184C21.1435 5.821 21.0702 6.0685 20.9052 6.2335L6.73349 20.4052C6.60515 20.5335 6.43099 20.6068 6.24765 20.6068ZM8.75016 2.521C4.52433 2.521 3.021 4.02433 3.021 8.25016V13.7502C3.021 16.931 3.901 18.526 6.03684 19.1585L19.6493 5.546C19.026 3.41017 17.4218 2.53016 14.241 2.53016H8.75016V2.521Z" fill="#39A57E"/>
<path d="M14.2503 20.8535H8.75034C7.74201 20.8535 6.88035 20.771 6.09202 20.5877C5.84452 20.5327 5.652 20.3493 5.58783 20.111C5.5145 19.8727 5.58783 19.616 5.762 19.4327L12.8478 12.3468C13.1137 12.081 13.5537 12.081 13.8195 12.3468L19.6678 18.1952C19.7962 18.3235 19.8695 18.4977 19.8695 18.681C19.8695 18.8643 19.7962 19.0385 19.6678 19.1668C18.5037 20.3218 16.7895 20.8535 14.2503 20.8535ZM7.69618 19.4418C8.02618 19.4693 8.37451 19.4785 8.75034 19.4785H14.2503C16.0103 19.4785 17.2662 19.2035 18.1554 18.626L13.3337 13.8043L7.69618 19.4418Z" fill="#39A57E"/>
<path d="M8.86003 12.2005C8.28253 12.2005 7.70502 11.9896 7.24669 11.5588C5.78919 10.1746 5.20254 8.65298 5.55087 7.16798C5.89921 5.64631 7.22836 4.61963 8.86003 4.61963C10.4917 4.61963 11.8209 5.64631 12.1692 7.16798C12.5084 8.66214 11.9217 10.1746 10.4642 11.5588C10.015 11.9805 9.43753 12.2005 8.86003 12.2005ZM6.8892 7.47046C6.59587 8.71713 7.43919 9.83547 8.20003 10.5596C8.57586 10.9171 9.15336 10.9171 9.52003 10.5596C10.2717 9.84464 11.115 8.7263 10.8309 7.47046C10.5834 6.37963 9.61169 5.98547 8.86003 5.98547C8.10836 5.98547 7.14587 6.37963 6.8892 7.47046Z" fill="#39A57E"/>
<path d="M8.88737 8.69954C8.3832 8.69954 7.9707 8.28704 7.9707 7.78288C7.9707 7.27871 8.37404 6.86621 8.88737 6.86621H8.89655C9.40071 6.86621 9.81321 7.27871 9.81321 7.78288C9.81321 8.28704 9.39154 8.69954 8.88737 8.69954Z" fill="#39A57E"/>
</svg>
