<svg width="55" height="55" viewBox="0 0 55 55" fill="none" xmlns="http://www.w3.org/2000/svg">
<path d="M18.334 4.5835V11.4585" stroke="#01636B" stroke-width="2" stroke-miterlimit="10" stroke-linecap="round" stroke-linejoin="round"/>
<path d="M36.666 4.5835V11.4585" stroke="#01636B" stroke-width="2" stroke-miterlimit="10" stroke-linecap="round" stroke-linejoin="round"/>
<path d="M48.125 19.4793V31.2356C46.0854 29.6085 43.4958 28.646 40.6771 28.646C37.8583 28.646 35.2229 29.6313 33.1604 31.3043C30.3875 33.4813 28.6458 36.896 28.6458 40.6772C28.6458 42.9231 29.2875 45.0773 30.3875 46.8648C31.2354 48.2627 32.3354 49.4772 33.6417 50.4168H18.3333C10.3125 50.4168 6.875 45.8335 6.875 38.9585V19.4793C6.875 12.6043 10.3125 8.021 18.3333 8.021H36.6667C44.6875 8.021 48.125 12.6043 48.125 19.4793Z" stroke="#01636B" stroke-width="2" stroke-miterlimit="10" stroke-linecap="round" stroke-linejoin="round"/>
<path d="M16.041 25.2085H29.791" stroke="#01636B" stroke-width="2" stroke-miterlimit="10" stroke-linecap="round" stroke-linejoin="round"/>
<path d="M16.041 36.6665H22.0452" stroke="#01636B" stroke-width="2" stroke-miterlimit="10" stroke-linecap="round" stroke-linejoin="round"/>
<path d="M52.709 40.6772C52.709 42.9231 52.0673 45.0773 50.9673 46.8648C50.3256 47.9648 49.5236 48.9273 48.584 49.7064C46.4757 51.5856 43.7257 52.7085 40.6777 52.7085C38.0423 52.7085 35.6131 51.8606 33.6423 50.4168C32.3361 49.4772 31.2361 48.2627 30.3882 46.8648C29.2882 45.0773 28.6465 42.9231 28.6465 40.6772C28.6465 36.896 30.3882 33.4814 33.1611 31.3043C35.2236 29.6314 37.859 28.646 40.6777 28.646C43.4965 28.646 46.0861 29.6085 48.1257 31.2356C50.9215 33.4356 52.709 36.8502 52.709 40.6772Z" stroke="#57636F" stroke-miterlimit="10" stroke-linecap="round" stroke-linejoin="round"/>
<path d="M40.6771 27.5C33.4115 27.5 27.5 33.4115 27.5 40.6771C27.5 47.9426 33.4115 53.8542 40.6771 53.8542C47.9426 53.8542 53.8542 47.9426 53.8542 40.6771C53.8542 33.4115 47.9426 27.5 40.6771 27.5ZM48.0417 37.2094L39.6203 45.5648C39.1249 46.0602 38.3323 46.0932 37.8039 45.5978L33.3455 41.5357C32.8171 41.0404 32.784 40.2147 33.2464 39.6863C33.7418 39.1579 34.5674 39.1249 35.0958 39.6203L38.6295 42.8568L46.1593 35.327C46.6877 34.7986 47.5133 34.7986 48.0417 35.327C48.5701 35.8554 48.5701 36.681 48.0417 37.2094Z" fill="#F8881B"/>
</svg>
