<svg width="24" height="24" viewBox="0 0 24 24" fill="none" xmlns="http://www.w3.org/2000/svg">
<path d="M20.5 22.75H3.5C3.09 22.75 2.75 22.41 2.75 22C2.75 21.59 3.09 21.25 3.5 21.25H20.5C20.91 21.25 21.25 21.59 21.25 22C21.25 22.41 20.91 22.75 20.5 22.75Z" fill="white"/>
<path d="M18.9995 18.25C18.8095 18.25 18.6195 18.18 18.4695 18.03L4.46945 4.03C4.17945 3.74 4.17945 3.26 4.46945 2.97C4.75945 2.68 5.23945 2.68 5.52945 2.97L19.5295 16.97C19.8195 17.26 19.8195 17.74 19.5295 18.03C19.3795 18.18 19.1895 18.25 18.9995 18.25Z" fill="white"/>
<path d="M5 14.52C4.59 14.52 4.25 14.18 4.25 13.77V3.5C4.25 3.09 4.59 2.75 5 2.75H15.27C15.68 2.75 16.02 3.09 16.02 3.5C16.02 3.91 15.68 4.25 15.27 4.25H5.75V13.77C5.75 14.18 5.41 14.52 5 14.52Z" fill="white"/>
</svg>
