<svg width="174" height="174" viewBox="0 0 174 174" fill="none" xmlns="http://www.w3.org/2000/svg">
<path d="M107.097 149.731H44.334C53.7596 148.577 60.8431 140.573 60.8431 131.078V112.638H90.5877V131.078C90.5877 140.573 97.6716 148.577 107.097 149.731Z" fill="#E0DEDE"/>
<path d="M133.456 118.587H13.4248C9.07728 118.587 5.55273 115.062 5.55273 110.714V27.7767C5.55273 23.4291 9.07728 19.9045 13.4248 19.9045H133.456C137.803 19.9045 141.328 23.4291 141.328 27.7767V110.714C141.328 115.062 137.804 118.587 133.456 118.587Z" fill="#E8E6E6"/>
<path d="M128.512 153.93H21.1678C20.081 153.93 19.2002 153.049 19.2002 151.963V151.698C19.2002 150.612 20.081 149.731 21.1678 149.731H128.512C129.599 149.731 130.48 150.612 130.48 151.698V151.963C130.48 153.049 129.599 153.93 128.512 153.93Z" fill="#E8E6E6"/>
<path d="M5.56801 28.0927V102.66H141.636V28.0927C141.636 27.8474 141.32 27.492 141.308 27.144H5.57219C5.56001 27.492 5.56801 27.8474 5.56801 28.0927Z" fill="#4DA1A9"/>
<path d="M5.56801 28.0927V102.562L141.484 28.076C141.484 27.8306 141.32 27.492 141.308 27.144H5.57219C5.56001 27.492 5.56801 27.8474 5.56801 28.0927Z" fill="#00686D"/>
<path d="M90.5874 118.587H60.8428V124.651H90.5874V118.587Z" fill="#D3CDCD"/>
<path d="M141.636 102.66V77.604H97.8784C95.6843 77.604 93.96 79.4188 93.96 81.613V102.66H141.636Z" fill="#1C9197"/>
<path d="M93.96 102.66V118.668H132.927C137.566 118.668 141.636 114.825 141.636 110.186V102.66H93.96Z" fill="#D3CDCD"/>
<path d="M99.876 147.227C97.44 145.849 95.352 143.991 93.96 141.8V149.64H99.876V147.227Z" fill="#D3CDCD"/>
<path d="M101.719 149.724H93.9512V153.93H101.719V149.724Z" fill="#E0DEDE"/>
<path d="M148.567 153.93H101.469C99.413 153.93 97.7461 152.263 97.7461 150.207V81.3631C97.7461 79.3068 99.413 77.6399 101.469 77.6399H148.567C150.623 77.6399 152.29 79.3068 152.29 81.3631V150.207C152.29 152.263 150.623 153.93 148.567 153.93Z" fill="#D3CDCD"/>
<path d="M152.29 84.208H97.7461V143.41H152.29V84.208Z" fill="#4DA1A9"/>
<path d="M97.7461 143.41V84.208H152.29L97.7461 143.41Z" fill="#00686D"/>
<path d="M127.633 149.731H122.403C121.727 149.731 121.178 149.182 121.178 148.506V148.341C121.178 147.665 121.726 147.116 122.403 147.116H127.633C128.31 147.116 128.859 147.664 128.859 148.341V148.506C128.858 149.182 128.31 149.731 127.633 149.731Z" fill="#E8E6E6"/>
<path d="M141.504 143.525V117.839C141.504 115.645 143.283 113.866 145.477 113.866H159.104C161.298 113.866 163.077 115.645 163.077 117.839V143.525H141.504Z" fill="#1C9197"/>
<path d="M141.636 149.957C141.636 152.151 143.282 153.816 145.476 153.816H159.103C160.433 153.816 161.472 153.274 162.168 152.27V143.376H141.636V149.957Z" fill="#C4BCBC"/>
<path d="M162.892 153.93H148.765C146.709 153.93 145.042 152.263 145.042 150.207V117.59C145.042 115.533 146.709 113.866 148.765 113.866H162.892C164.948 113.866 166.615 115.533 166.615 117.59V150.207C166.615 152.263 164.948 153.93 162.892 153.93Z" fill="#E8E6E6"/>
<path d="M166.614 117.316H145.041V148.465H166.614V117.316Z" fill="#4DA1A9"/>
<path d="M145.041 148.465V117.316H166.614L145.041 148.465Z" fill="#00686D"/>
<path d="M156.836 152.346H154.819C154.143 152.346 153.594 151.797 153.594 151.12V150.956C153.594 150.279 154.142 149.73 154.819 149.73H156.836C157.513 149.73 158.062 150.279 158.062 150.956V151.12C158.061 151.797 157.513 152.346 156.836 152.346Z" fill="white"/>
</svg>
