<svg width="188" height="188" viewBox="0 0 188 188" fill="none" xmlns="http://www.w3.org/2000/svg">
<path d="M12.4902 148.731L22.1562 132.398L168.402 133.232L175.509 148.731H12.4902Z" fill="#1C9197"/>
<path d="M68.3306 132.664L22.156 132.398L18.3135 138.891C25.4666 138.368 57.8026 136.754 76.0524 148.731H90.1478C86.0668 144.494 78.7761 137.974 68.3306 132.664Z" fill="#00686D"/>
<path d="M111.947 148.731C132.04 135.543 169.237 138.827 171.043 139.001L168.402 133.232L119.109 132.948C108.957 138.212 101.85 144.567 97.8516 148.731H111.947Z" fill="#00686D"/>
<path d="M64.846 83.0226L22.1562 119.687L93.9998 148.731V90.671L64.846 83.0226Z" fill="#F0F0F0"/>
<path d="M123.154 83.0226L94 90.671V148.731L165.844 119.687L123.154 83.0226Z" fill="#F0F0F0"/>
<path opacity="0.2" d="M97.8517 89.6622L94.2293 90.616L94 149.116L105.94 143.898L97.8517 89.6622Z" fill="#231F20"/>
<path opacity="0.2" d="M92.1657 90.1941L93.9999 90.671V148.731L82.0596 143.898L92.1657 90.1941Z" fill="#231F20"/>
<path d="M119.247 64.1126C119.247 50.0906 107.811 38.7372 93.7612 38.8656C79.7116 38.994 68.5967 50.4849 68.7526 64.4152C68.8173 70.551 71.1233 76.4514 75.2363 81.0051C80.3994 86.7368 83.3249 94.1376 83.3249 101.859V101.905H104.674V101.859C104.667 94.1835 107.522 86.7807 112.68 81.0968C116.913 76.454 119.256 70.3953 119.247 64.1126Z" fill="#F4C23F"/>
<path d="M83.2607 101.859H104.729V110.902C104.727 113.747 103.596 116.474 101.584 118.486C99.5724 120.498 96.8446 121.629 93.9997 121.631C91.1515 121.631 88.42 120.5 86.4061 118.486C84.3922 116.472 83.2607 113.741 83.2607 110.892V101.85V101.859Z" fill="#4D4C78"/>
<path d="M104.739 109.453V105.784H83.2607V109.453H104.739Z" fill="#323150"/>
<path d="M94.0002 29.4381C93.5137 29.4381 93.0472 29.2449 92.7032 28.9009C92.3593 28.5569 92.166 28.0904 92.166 27.604V17.5162C92.166 17.0297 92.3593 16.5632 92.7032 16.2192C93.0472 15.8752 93.5137 15.682 94.0002 15.682C94.4866 15.682 94.9531 15.8752 95.2971 16.2192C95.6411 16.5632 95.8343 17.0297 95.8343 17.5162V27.604C95.8343 28.0904 95.6411 28.5569 95.2971 28.9009C94.9531 29.2449 94.4866 29.4381 94.0002 29.4381Z" fill="#F8881B"/>
<path d="M68.4137 40.0394C67.9252 40.0378 67.4572 39.8433 67.1114 39.4984L59.9857 32.3727C59.6416 32.0285 59.4482 31.5618 59.4482 31.075C59.4482 30.5883 59.6416 30.1215 59.9857 29.7774C60.3299 29.4332 60.7967 29.2399 61.2834 29.2399C61.7701 29.2399 62.2369 29.4332 62.5811 29.7774L69.7067 36.9122C69.9617 37.1687 70.1351 37.4948 70.2053 37.8496C70.2754 38.2044 70.2391 38.5719 70.1009 38.9061C69.9627 39.2403 69.7288 39.5262 69.4286 39.7279C69.1284 39.9295 68.7753 40.0379 68.4137 40.0394Z" fill="#F8881B"/>
<path d="M119.586 40.0394C120.075 40.0378 120.543 39.8433 120.888 39.4984L128.014 32.3727C128.358 32.0285 128.552 31.5618 128.552 31.075C128.552 30.5883 128.358 30.1215 128.014 29.7774C127.67 29.4332 127.203 29.2399 126.716 29.2399C126.23 29.2399 125.763 29.4332 125.419 29.7774L118.293 36.9122C118.038 37.1687 117.865 37.4948 117.795 37.8496C117.724 38.2044 117.761 38.5719 117.899 38.9061C118.037 39.2403 118.271 39.5262 118.571 39.7279C118.871 39.9295 119.225 40.0379 119.586 40.0394Z" fill="#F8881B"/>
<path d="M57.8126 65.6258H47.7248C47.2383 65.6258 46.7718 65.4326 46.4278 65.0886C46.0839 64.7446 45.8906 64.2781 45.8906 63.7917C45.8906 63.3052 46.0839 62.8387 46.4278 62.4947C46.7718 62.1508 47.2383 61.9575 47.7248 61.9575H57.8126C58.299 61.9575 58.7655 62.1508 59.1095 62.4947C59.4535 62.8387 59.6467 63.3052 59.6467 63.7917C59.6467 64.2781 59.4535 64.7446 59.1095 65.0886C58.7655 65.4326 58.299 65.6258 57.8126 65.6258Z" fill="#F8881B"/>
<path d="M140.275 65.6258H130.188C129.701 65.6258 129.235 65.4326 128.891 65.0886C128.547 64.7446 128.354 64.2781 128.354 63.7917C128.354 63.3052 128.547 62.8387 128.891 62.4947C129.235 62.1508 129.701 61.9575 130.188 61.9575H140.275C140.762 61.9575 141.228 62.1508 141.572 62.4947C141.916 62.8387 142.11 63.3052 142.11 63.7917C142.11 64.2781 141.916 64.7446 141.572 65.0886C141.228 65.4326 140.762 65.6258 140.275 65.6258Z" fill="#F8881B"/>
<path d="M106.519 148.731H81.4824V155.72H106.519V148.731Z" fill="#323150"/>
<path d="M81.4908 148.731H12.4902V155.72H81.4908V148.731Z" fill="#4DA1A9"/>
<path d="M106.509 155.719H175.51V148.73H106.509V155.719Z" fill="#4DA1A9"/>
<path d="M94.0005 148.731C94.0005 148.731 69.6063 115.349 22.157 119.687L16.8838 134.58C16.8838 134.58 63.2785 130.004 81.4824 148.731H94.0005Z" fill="#E0DEDE"/>
<path d="M94 148.731C94 148.731 118.394 115.349 165.844 119.687L171.117 134.58C171.117 134.58 124.722 130.004 106.518 148.731H94Z" fill="#E0DEDE"/>
<path d="M93.7619 38.8656C84.958 38.9481 77.2363 43.5702 72.7793 50.4757C73.4488 70.1011 88.7639 86.0123 108.142 87.6264C109.361 85.2599 110.888 83.0644 112.681 81.0968C116.914 76.454 119.256 70.3953 119.247 64.1126C119.247 50.0906 107.811 38.7372 93.7619 38.8656Z" fill="#FAD564"/>
<path d="M128.817 88.2718C127.582 87.1756 125.694 87.2863 124.599 88.5191C123.505 89.7519 123.618 91.64 124.853 92.7363L134.667 101.45C135.902 102.546 137.79 102.435 138.885 101.202C139.979 99.9696 139.866 98.0816 138.631 96.9853L128.817 88.2718Z" fill="#E3E3E3"/>
</svg>
