<svg width="173" height="173" viewBox="0 0 173 173" fill="none" xmlns="http://www.w3.org/2000/svg">
<path d="M143.266 22.9766H21.625V152.727H143.266V22.9766Z" fill="#4DA1A9"/>
<path d="M135.832 59.4688H29.0586V60.8203H135.832V59.4688Z" fill="#E0E0E0"/>
<path d="M135.832 87.8516H29.0586V89.2031H135.832V87.8516Z" fill="#E0E0E0"/>
<path d="M135.832 114.883H29.0586V116.234H135.832V114.883Z" fill="#E0E0E0"/>
<path d="M56.7656 31.0859H55.4141V144.617H56.7656V31.0859Z" fill="#E0E0E0"/>
<path d="M82.4453 31.0859H81.0938V144.617H82.4453V31.0859Z" fill="#E0E0E0"/>
<path d="M108.125 31.0859H106.773V144.617H108.125V31.0859Z" fill="#E0E0E0"/>
<path d="M136.508 145.969H28.3828V29.7344H136.508V145.969ZM31.0859 143.266H133.805V32.4375H31.0859V143.266Z" fill="#E0E0E0"/>
<path d="M104.476 148.537L101.908 162.188C101.772 162.728 102.583 162.998 102.854 162.458L108.801 149.888L104.476 148.537Z" fill="#E8E8EF"/>
<path d="M121.64 91.5007L133.264 95.4203L123.668 124.479L115.018 111.639L121.64 91.5007Z" fill="#E0E0E0"/>
<path d="M135.124 51.2323L121.666 91.6224L133.334 95.5102L146.792 55.1201L135.124 51.2323Z" fill="#E0E0E0"/>
<path d="M123.668 124.479L120.289 134.751L111.774 150.97L102.854 147.996L115.018 111.639L123.668 124.479Z" fill="#E0E0E0"/>
<path d="M127.062 107.418C127.977 105.456 127.128 103.124 125.166 102.21C123.204 101.295 120.872 102.144 119.957 104.106C119.042 106.067 119.891 108.399 121.853 109.314C123.815 110.229 126.147 109.38 127.062 107.418Z" fill="#CFD8DC"/>
<path d="M121.676 102.174L120.416 103.195L125.35 109.287L126.61 108.266L121.676 102.174Z" fill="#263238"/>
<path d="M139.146 83.4068L137.736 87.6385L140.942 88.7063L142.352 84.4745L139.146 83.4068Z" fill="#757575"/>
<path d="M138.303 80.5908L135.398 89.3109L138.604 90.3786L141.509 81.6586L138.303 80.5908Z" fill="#757575"/>
<path d="M144.762 77.2417L138.569 95.8359L141.775 96.9037L147.968 78.3094L144.762 77.2417Z" fill="#CFD8DC"/>
<path d="M125.137 136.226C126.84 132.573 125.26 128.231 121.606 126.527C117.953 124.824 113.611 126.404 111.908 130.057C110.204 133.711 111.785 138.053 115.438 139.756C119.091 141.46 123.433 139.879 125.137 136.226Z" fill="#00686D"/>
<path d="M119.991 133.824C120.37 133.012 120.019 132.047 119.207 131.668C118.395 131.29 117.43 131.641 117.052 132.453C116.673 133.265 117.024 134.229 117.836 134.608C118.648 134.987 119.613 134.635 119.991 133.824Z" fill="white"/>
<path d="M66.227 142.59L65.6863 145.698C65.416 146.915 66.7676 147.726 67.8488 147.05L70.4168 145.158C71.3629 144.482 72.1738 143.536 72.8496 142.59L77.0395 135.832L71.7684 132.588L67.5785 139.211C66.9027 140.292 66.4973 141.509 66.227 142.59Z" fill="#263238"/>
<path d="M92.1771 107.044L87.4467 104.07L84.2029 102.043L76.6342 114.477L69.7412 131.372L77.7154 136.373L94.7451 108.53L92.1771 107.044Z" fill="#E0E0E0"/>
<path d="M102.584 90.0141L97.8539 87.1758L88.1227 102.854L85.0141 100.962L84.2031 102.043L94.7453 108.53L95.4211 107.449L92.8531 105.827L102.584 90.0141Z" fill="#757575"/>
<path d="M107.314 79.7421L104.476 77.9851L88.9332 103.394L85.0137 100.962L100.962 75.0116L116.37 73.3898L95.4207 107.449L91.7715 105.151L107.314 79.7421Z" fill="#E0E0E0"/>
<path d="M120.695 42.8445L131.237 49.332L116.37 73.3898L100.962 75.0117L120.695 42.8445Z" fill="#E0E0E0"/>
<path d="M91.8239 83.4062L87.0107 91.2357L89.8892 93.0053L94.7024 85.1758L91.8239 83.4062Z" fill="#757575"/>
<path d="M101.772 97.4477L103.935 93.5282L104.07 93.6634C105.151 94.3391 105.422 95.6907 104.746 96.772C104.205 97.8532 102.854 98.1235 101.772 97.4477Z" fill="#757575"/>
<path d="M91.735 77.1302L81.4717 93.8254L84.3502 95.595L94.6135 78.8997L91.735 77.1302Z" fill="#CFD8DC"/>
<path d="M85.4111 117.686C87.1145 114.033 85.534 109.691 81.8809 107.987C78.2277 106.284 73.8854 107.865 72.182 111.518C70.4786 115.171 72.0591 119.513 75.7122 121.217C79.3654 122.92 83.7077 121.34 85.4111 117.686Z" fill="#00686D"/>
<path d="M80.2668 115.288C80.6454 114.476 80.2941 113.511 79.4823 113.133C78.6705 112.754 77.7055 113.105 77.327 113.917C76.9485 114.729 77.2997 115.694 78.1115 116.072C78.9233 116.451 79.8883 116.1 80.2668 115.288Z" fill="white"/>
<path d="M153.808 21.4898L142.185 16.0835C147.861 14.0562 151.646 16.0835 153.808 21.4898Z" fill="#4DA1A9"/>
<path d="M131.535 33.6698L129.536 37.957L144.725 45.0395L146.724 40.7523L131.535 33.6698Z" fill="#4DA1A9"/>
<path d="M153.809 21.4897L146.78 40.8171L131.508 33.6538L142.185 16.0835L147.862 18.6515L153.809 21.4897Z" fill="#00686D"/>
<path d="M137.86 40.1413C146.51 44.196 152.862 49.1968 151.781 51.2242L148.537 58.1171L135.832 73.5249L134.346 77.039C133.535 78.6609 127.858 77.7148 121.641 74.8765C115.424 72.0382 111.099 68.2538 111.775 66.632L113.396 63.2531L117.046 43.6554L120.289 36.7624C121.371 34.4648 129.21 36.0867 137.86 40.1413Z" fill="#00686D"/>
<path d="M144.97 54.5874C145.481 52.1778 143.943 49.8097 141.533 49.2981C139.123 48.7864 136.755 50.325 136.244 52.7346C135.732 55.1442 137.271 57.5123 139.68 58.0239C142.09 58.5355 144.458 56.9969 144.97 54.5874Z" fill="#CFD8DC"/>
<path d="M138.13 52.3054L140.022 52.7109L140.428 50.8187L142.05 51.089L141.644 53.1164L143.536 53.5219L143.266 55.1437L141.239 54.7383L140.833 56.6304L139.211 56.225L139.617 54.3328L137.725 53.9273L138.13 52.3054Z" fill="#263238"/>
<path d="M126.823 51.2659C129.241 50.7969 130.821 48.4563 130.352 46.0381C129.883 43.6199 127.543 42.0398 125.125 42.5088C122.706 42.9778 121.126 45.3184 121.595 47.7366C122.064 50.1548 124.405 51.7349 126.823 51.2659Z" fill="#CFD8DC"/>
<path d="M122.992 46.6289L124.884 46.2234L124.614 44.1961L126.236 43.9258L126.641 45.818L128.534 45.5477L128.804 47.1695L126.912 47.575L127.317 49.4672L125.695 49.7375L125.29 47.8453L123.398 48.2508L122.992 46.6289Z" fill="#263238"/>
</svg>
