<svg width="22" height="22" viewBox="0 0 22 22" fill="none" xmlns="http://www.w3.org/2000/svg">
<path d="M15.5835 19.4793H6.41683C6.041 19.4793 5.72933 19.1677 5.72933 18.7918C5.72933 18.416 6.041 18.1043 6.41683 18.1043H15.5835C18.2052 18.1043 19.4793 16.8302 19.4793 14.2085V7.79183C19.4793 5.17016 18.2052 3.896 15.5835 3.896H6.41683C3.79516 3.896 2.521 5.17016 2.521 7.79183C2.521 8.16766 2.20933 8.47933 1.8335 8.47933C1.45766 8.47933 1.146 8.16766 1.146 7.79183C1.146 4.446 3.071 2.521 6.41683 2.521H15.5835C18.9293 2.521 20.8543 4.446 20.8543 7.79183V14.2085C20.8543 17.5543 18.9293 19.4793 15.5835 19.4793Z" fill="#39A57E"/>
<path d="M10.9999 11.797C10.2299 11.797 9.45071 11.5587 8.85488 11.0728L5.98571 8.78115C5.69238 8.54282 5.63738 8.11198 5.87571 7.81865C6.11405 7.52532 6.54487 7.47032 6.8382 7.70865L9.70737 10.0003C10.404 10.5595 11.5865 10.5595 12.2832 10.0003L15.1524 7.70865C15.4457 7.47032 15.8857 7.51615 16.1149 7.81865C16.3532 8.11198 16.3074 8.55199 16.0049 8.78115L13.1357 11.0728C12.549 11.5587 11.7699 11.797 10.9999 11.797Z" fill="#39A57E"/>
<path d="M7.3335 15.8125H1.8335C1.45766 15.8125 1.146 15.5008 1.146 15.125C1.146 14.7492 1.45766 14.4375 1.8335 14.4375H7.3335C7.70933 14.4375 8.021 14.7492 8.021 15.125C8.021 15.5008 7.70933 15.8125 7.3335 15.8125Z" fill="#39A57E"/>
<path d="M4.5835 12.146H1.8335C1.45766 12.146 1.146 11.8343 1.146 11.4585C1.146 11.0827 1.45766 10.771 1.8335 10.771H4.5835C4.95933 10.771 5.271 11.0827 5.271 11.4585C5.271 11.8343 4.95933 12.146 4.5835 12.146Z" fill="#39A57E"/>
</svg>
