<svg width="38" height="44" viewBox="0 0 38 44" fill="none" xmlns="http://www.w3.org/2000/svg">
<path d="M18.7 43.015C16.52 43.015 14.36 42.375 12.66 41.115L4.06 34.695C1.78 32.995 0 29.435 0 26.615V11.735C0 8.655 2.26 5.375 5.16 4.295L15.14 0.555C17.12 -0.185 20.24 -0.185 22.22 0.555L32.2 4.295C35.1 5.375 37.36 8.655 37.36 11.735V26.595C37.36 29.435 35.58 32.975 33.3 34.675L24.7 41.095C23.04 42.375 20.88 43.015 18.7 43.015ZM16.2 3.375L6.22 7.115C4.52 7.755 3.02 9.915 3.02 11.755V26.615C3.02 28.515 4.36 31.175 5.86 32.295L14.46 38.715C16.76 40.435 20.64 40.435 22.96 38.715L31.56 32.295C33.08 31.155 34.4 28.515 34.4 26.615V11.735C34.4 9.915 32.9 7.755 31.2 7.095L21.22 3.355C19.86 2.875 17.54 2.875 16.2 3.375Z" fill="#01636B"/>
<path d="M28.1905 17.6875L17.8776 27.5419C17.2709 28.1261 16.3003 28.1651 15.6532 27.5808L10.1934 22.79C9.54636 22.2057 9.50592 21.232 10.0721 20.6088C10.6788 19.9856 11.6898 19.9466 12.3369 20.5309L16.6643 24.348L25.8852 15.4674C26.5323 14.8442 27.5434 14.8442 28.1905 15.4674C28.8376 16.0906 28.8376 17.0643 28.1905 17.6875Z" fill="#F6AB27"/>
</svg>
