<svg width="18" height="18" viewBox="0 0 18 18" fill="none" xmlns="http://www.w3.org/2000/svg">
<path d="M13.3693 3.77751C12.6275 2.91513 12.2389 1.80093 12.2698 0.666569L9.49803 0.599609C9.49803 0.599609 9.49803 0.717869 9.49803 0.877349V11.9925C9.53673 15.509 3.98085 15.4237 4.42041 11.5368C4.68915 9.99129 6.34983 9.04017 7.82547 9.57783V6.74967C4.61283 6.19023 1.56831 8.74731 1.60035 12.005C1.88115 19.07 12.0144 19.0709 12.2956 12.005C12.2248 11.7521 12.2644 7.04397 12.2544 6.64689C13.5147 7.43115 14.9812 7.82319 16.4664 7.77297V4.85211C15.0933 4.85211 14.0455 4.48707 13.3693 3.77751Z" fill="#C7D4DE"/>
</svg>
