<svg width="18" height="18" viewBox="0 0 18 18" fill="none" xmlns="http://www.w3.org/2000/svg">
<path fill-rule="evenodd" clip-rule="evenodd" d="M18 3.27573C17.3386 3.57693 16.6265 3.78061 15.8796 3.87162C16.6424 3.40358 17.2277 2.66143 17.5034 1.77736C16.7892 2.21073 16 2.526 15.1569 2.69501C14.4849 1.95937 13.5246 1.5 12.4617 1.5C10.4237 1.5 8.7702 3.19556 8.7702 5.28656C8.7702 5.58342 8.8019 5.87162 8.86529 6.14897C5.79609 5.99079 3.07554 4.48483 1.25304 2.19122C0.935023 2.75244 0.753296 3.40358 0.753296 4.09697C0.753296 5.41008 1.40518 6.56934 2.3962 7.24865C1.79187 7.23023 1.22134 7.05796 0.72266 6.77627V6.82286C0.72266 8.65818 1.99577 10.1891 3.68621 10.5357C3.37665 10.6246 3.05018 10.669 2.71315 10.669C2.47544 10.669 2.243 10.6463 2.01796 10.6018C2.48811 12.1056 3.85102 13.201 5.46751 13.2302C4.2039 14.2465 2.61067 14.8521 0.881138 14.8521C0.583198 14.8521 0.288431 14.8348 0 14.8001C1.63444 15.8727 3.57633 16.5 5.66085 16.5C12.4543 16.5 16.168 10.7308 16.168 5.72643C16.168 5.56175 16.1648 5.39707 16.1585 5.23564C16.8801 4.70151 17.5066 4.03521 18 3.27573Z" fill="white"/>
</svg>
