<svg width="23" height="23" viewBox="0 0 23 23" fill="none" xmlns="http://www.w3.org/2000/svg">
<path d="M2.66476 21.4626C2.48143 21.4626 2.30723 21.3893 2.1789 21.261C2.00473 21.0868 1.93144 20.8301 1.99561 20.5918L3.15062 16.2743C2.38062 14.8443 1.97726 13.231 1.97726 11.5993C1.97726 6.16345 6.39559 1.74512 11.8314 1.74512C17.2673 1.74512 21.6856 6.16345 21.6856 11.5993C21.6856 17.0351 17.2673 21.4535 11.8314 21.4535C10.1723 21.4535 8.54978 21.041 7.10145 20.2526L2.8481 21.4351C2.78394 21.4535 2.72893 21.4626 2.66476 21.4626ZM7.1931 18.8318C7.31226 18.8318 7.43143 18.8685 7.54143 18.9235C8.83393 19.6843 10.3189 20.0876 11.8314 20.0876C16.5064 20.0876 20.3106 16.2835 20.3106 11.6085C20.3106 6.93346 16.5064 3.12929 11.8314 3.12929C7.15643 3.12929 3.35226 6.93346 3.35226 11.6085C3.35226 13.1026 3.74642 14.5601 4.48892 15.8435C4.58058 15.9993 4.6081 16.1918 4.56227 16.366L3.6456 19.7943L7.01893 18.8593C7.07393 18.841 7.1381 18.8318 7.1931 18.8318Z" fill="#39A57E"/>
<path d="M14.3415 16.888C13.7731 16.888 13.1865 16.7597 12.5723 16.4938C11.9948 16.2463 11.4173 15.9163 10.8581 15.5038C10.3081 15.1005 9.76733 14.6422 9.27233 14.1472C8.77733 13.643 8.31896 13.1114 7.91563 12.5614C7.50313 11.9839 7.17312 11.4155 6.93479 10.8563C6.67812 10.2513 6.5498 9.65551 6.5498 9.08718C6.5498 8.68384 6.62312 8.29884 6.76062 7.94134C6.90729 7.56551 7.14563 7.22634 7.4573 6.933C8.04396 6.3555 8.88733 6.14469 9.5565 6.46552C9.78566 6.56636 9.97816 6.73136 10.1248 6.95136L11.1881 8.4455C11.2981 8.59217 11.3807 8.748 11.4448 8.90383C11.5182 9.08717 11.564 9.27052 11.564 9.44469C11.564 9.68302 11.4998 9.92136 11.3715 10.1322C11.289 10.2697 11.1698 10.4347 11.014 10.5905L10.8948 10.7188C10.9498 10.7922 11.014 10.8838 11.1148 10.9938C11.3073 11.2138 11.5181 11.4522 11.7473 11.6813C11.9765 11.9013 12.2056 12.1213 12.4348 12.3138C12.5448 12.4055 12.6365 12.4788 12.7098 12.5247L12.8381 12.3963C13.0031 12.2313 13.1682 12.103 13.3332 12.0205C13.6357 11.828 14.1031 11.7822 14.5156 11.9563C14.6623 12.0113 14.809 12.0938 14.9648 12.2038L16.4957 13.2855C16.7065 13.4322 16.8715 13.6338 16.9815 13.863C17.0731 14.0922 17.1098 14.2938 17.1098 14.5047C17.1098 14.7797 17.0456 15.0455 16.9265 15.3022C16.8073 15.5405 16.6698 15.7514 16.5048 15.9439C16.2115 16.2647 15.8723 16.503 15.5057 16.6589C15.139 16.8147 14.7448 16.888 14.3415 16.888ZM8.88729 7.703C8.83229 7.703 8.64901 7.703 8.41984 7.93217C8.24567 8.09717 8.12648 8.27135 8.04398 8.46385C7.96148 8.65635 7.9248 8.87635 7.9248 9.09635C7.9248 9.48135 8.01646 9.89383 8.19979 10.3338C8.39229 10.7922 8.67648 11.278 9.02482 11.7639C9.38232 12.2497 9.78566 12.7355 10.2348 13.1847C10.684 13.6247 11.1606 14.0372 11.6556 14.4038C12.1323 14.7522 12.6182 15.0272 13.104 15.238C13.8007 15.5405 14.4423 15.6138 14.9648 15.3938C15.1481 15.3205 15.3131 15.1922 15.4781 15.0272C15.5606 14.9355 15.6248 14.8438 15.6798 14.7247C15.7073 14.6605 15.7256 14.5872 15.7256 14.523C15.7256 14.5047 15.7256 14.4772 15.6981 14.4222L14.1673 13.3588C14.1031 13.313 14.039 13.2763 13.984 13.258C13.9473 13.2763 13.8923 13.3038 13.7915 13.4047L13.4432 13.753C13.1773 14.0188 12.7557 14.0922 12.4165 13.973L12.2515 13.8997C12.0407 13.7897 11.8023 13.6247 11.5365 13.3955C11.2798 13.1755 11.0323 12.9463 10.7665 12.6897C10.5098 12.4238 10.2807 12.1763 10.0607 11.9197C9.82232 11.6355 9.65732 11.4064 9.54732 11.2139L9.4465 10.9755C9.419 10.8838 9.4098 10.783 9.4098 10.6913C9.4098 10.4347 9.5015 10.2055 9.67567 10.0222L10.024 9.66468C10.1248 9.56385 10.1615 9.50886 10.1798 9.47219C10.1523 9.40802 10.1157 9.35301 10.0698 9.28884L8.99729 7.77635L8.88729 7.703Z" fill="#39A57E"/>
</svg>
